<svg id="svg" version="1.1" xmlns="http://www.w3.org/2000/svg" xmlns:xlink="http://www.w3.org/1999/xlink" width="400" height="151.9650655021834" viewBox="0, 0, 400,151.9650655021834"><g id="svgg"><path id="path0" d="M121.646 0.611 C 121.634 0.642,121.615 0.723,121.602 0.792 C 121.590 0.860,121.131 1.353,120.582 1.886 C 120.033 2.419,119.376 3.057,119.123 3.303 C 118.869 3.549,118.569 3.752,118.456 3.754 C 118.343 3.756,118.269 3.875,118.293 4.018 C 118.316 4.161,118.072 4.517,117.751 4.810 C 117.430 5.102,117.167 5.296,117.167 5.240 C 117.167 5.135,116.162 6.192,115.583 6.906 C 115.400 7.133,115.154 7.321,115.036 7.326 C 114.919 7.330,114.780 7.445,114.727 7.582 C 114.675 7.719,114.565 7.790,114.483 7.739 C 114.400 7.688,114.333 7.722,114.333 7.813 C 114.333 8.051,112.005 10.425,111.821 10.375 C 111.736 10.352,111.684 10.390,111.705 10.458 C 111.766 10.654,111.118 11.333,110.870 11.333 C 110.747 11.333,110.693 11.408,110.750 11.500 C 110.807 11.592,110.732 11.667,110.583 11.667 C 110.435 11.667,110.352 11.728,110.398 11.804 C 110.488 11.948,109.927 12.500,109.692 12.500 C 109.616 12.500,109.466 12.692,109.359 12.926 C 109.253 13.160,109.104 13.314,109.029 13.268 C 108.880 13.176,108.333 13.744,108.333 13.990 C 108.333 14.210,107.486 14.844,107.325 14.745 C 107.251 14.699,107.135 14.749,107.069 14.856 C 106.989 14.985,107.021 15.007,107.163 14.919 C 107.306 14.831,107.350 14.864,107.295 15.018 C 107.251 15.146,107.092 15.240,106.942 15.227 C 106.793 15.215,106.710 15.268,106.758 15.347 C 106.863 15.516,105.960 16.500,105.700 16.500 C 105.600 16.500,105.386 16.725,105.223 17.000 C 105.061 17.275,104.832 17.500,104.714 17.500 C 104.596 17.500,104.500 17.580,104.500 17.679 C 104.500 17.980,104.015 18.362,103.793 18.234 C 103.678 18.168,103.635 18.171,103.698 18.241 C 103.838 18.396,103.227 19.083,102.949 19.083 C 102.839 19.083,102.749 19.158,102.747 19.250 C 102.743 19.544,102.482 19.842,102.318 19.740 C 102.230 19.686,102.179 19.741,102.204 19.863 C 102.230 19.985,102.138 20.059,102.000 20.028 C 101.862 19.997,101.801 20.023,101.864 20.086 C 102.028 20.251,100.987 21.345,100.785 21.220 C 100.691 21.162,100.660 21.188,100.716 21.278 C 100.834 21.469,100.245 22.022,100.089 21.866 C 100.030 21.808,100.036 21.908,100.101 22.088 C 100.166 22.269,100.160 22.363,100.088 22.297 C 100.015 22.232,99.810 22.363,99.632 22.589 C 99.455 22.815,99.221 23.003,99.113 23.006 C 99.005 23.010,98.761 23.254,98.570 23.548 C 98.379 23.842,98.135 24.065,98.028 24.042 C 97.921 24.019,97.833 24.073,97.833 24.162 C 97.833 24.390,95.729 26.500,95.501 26.500 C 95.398 26.500,95.360 26.575,95.417 26.667 C 95.473 26.758,95.398 26.833,95.250 26.833 C 95.102 26.833,95.021 26.899,95.071 26.980 C 95.121 27.061,94.901 27.305,94.582 27.522 C 94.263 27.739,94.002 28.018,94.001 28.143 C 94.000 28.272,93.896 28.329,93.758 28.276 C 93.602 28.216,93.548 28.264,93.604 28.410 C 93.654 28.541,93.547 28.682,93.349 28.745 C 93.161 28.805,93.024 28.907,93.045 28.972 C 93.109 29.171,91.726 30.336,91.581 30.205 C 91.507 30.138,91.496 30.169,91.556 30.275 C 91.616 30.380,91.472 30.643,91.237 30.858 C 91.001 31.074,90.720 31.347,90.612 31.466 C 90.505 31.585,90.318 31.773,90.197 31.883 C 89.988 32.073,89.733 32.342,88.875 33.276 C 88.669 33.500,88.500 33.644,88.500 33.594 C 88.500 33.545,87.866 34.148,87.091 34.933 C 86.315 35.719,85.604 36.314,85.509 36.256 C 85.409 36.194,85.376 36.250,85.429 36.389 C 85.534 36.661,84.622 37.395,84.417 37.203 C 84.346 37.137,84.321 37.190,84.362 37.320 C 84.458 37.628,82.368 39.705,82.110 39.557 C 82.004 39.496,81.974 39.509,82.043 39.586 C 82.200 39.759,81.526 40.500,81.211 40.500 C 81.084 40.500,81.024 40.571,81.077 40.657 C 81.131 40.743,80.948 41.046,80.671 41.329 C 80.393 41.613,80.167 41.817,80.167 41.784 C 80.167 41.751,79.642 42.228,79.000 42.845 C 78.358 43.461,77.833 44.027,77.833 44.103 C 77.833 44.272,77.001 45.000,76.807 45.000 C 76.730 45.000,76.667 45.125,76.667 45.278 C 76.667 45.431,76.627 45.516,76.580 45.468 C 76.532 45.421,76.041 45.821,75.489 46.357 C 74.937 46.894,74.432 47.334,74.368 47.334 C 74.303 47.335,74.122 47.560,73.966 47.834 C 73.810 48.109,73.566 48.333,73.424 48.333 C 73.283 48.333,73.184 48.390,73.205 48.458 C 73.266 48.655,72.623 49.326,72.466 49.229 C 72.389 49.181,72.346 49.209,72.371 49.290 C 72.426 49.469,71.592 50.325,70.960 50.738 C 70.708 50.902,70.539 51.095,70.583 51.166 C 70.627 51.237,70.514 51.334,70.332 51.382 C 70.150 51.429,69.949 51.607,69.885 51.776 C 69.761 52.102,69.405 52.516,69.256 52.506 C 68.916 52.483,68.833 52.527,68.833 52.727 C 68.833 53.012,66.855 55.085,66.448 55.226 C 66.282 55.284,66.190 55.403,66.244 55.490 C 66.298 55.578,66.179 55.737,65.980 55.844 C 65.523 56.088,64.358 57.302,64.471 57.416 C 64.518 57.462,64.466 57.500,64.356 57.500 C 64.247 57.500,63.690 57.973,63.120 58.552 C 62.550 59.131,62.027 59.618,61.958 59.636 C 61.890 59.653,61.833 59.704,61.833 59.749 C 61.831 59.951,61.102 60.647,60.975 60.568 C 60.897 60.520,60.833 60.566,60.833 60.672 C 60.833 60.777,60.477 61.196,60.042 61.603 C 59.064 62.517,59.160 62.423,58.253 63.376 C 57.839 63.812,57.500 64.124,57.500 64.070 C 57.500 64.016,57.331 64.176,57.125 64.426 C 56.919 64.675,56.487 65.130,56.167 65.436 C 55.846 65.743,55.508 66.075,55.417 66.175 C 55.325 66.275,54.658 66.933,53.934 67.637 C 53.210 68.341,52.057 69.479,51.372 70.167 C 50.687 70.854,50.055 71.396,49.968 71.371 C 49.880 71.346,49.851 71.394,49.903 71.478 C 49.955 71.561,49.663 71.882,49.254 72.190 C 48.845 72.498,48.508 72.848,48.505 72.968 C 48.502 73.088,48.433 73.145,48.351 73.094 C 48.269 73.043,48.157 73.119,48.102 73.262 C 48.045 73.409,47.918 73.469,47.806 73.400 C 47.671 73.317,47.645 73.371,47.724 73.575 C 47.809 73.798,47.773 73.846,47.577 73.770 C 47.432 73.715,47.360 73.741,47.414 73.830 C 47.469 73.917,47.360 74.085,47.173 74.201 C 46.986 74.318,46.833 74.508,46.833 74.623 C 46.833 74.739,46.721 74.833,46.583 74.833 C 46.446 74.833,46.333 74.936,46.333 75.062 C 46.333 75.297,45.224 76.333,44.973 76.333 C 44.896 76.333,44.833 76.440,44.833 76.569 C 44.833 76.699,44.515 77.053,44.125 77.357 C 43.735 77.660,43.356 78.005,43.281 78.124 C 43.207 78.243,43.077 78.297,42.992 78.245 C 42.907 78.192,42.878 78.255,42.927 78.383 C 42.980 78.521,42.825 78.743,42.550 78.922 C 42.048 79.250,41.010 80.337,41.004 80.542 C 41.002 80.610,40.906 80.667,40.792 80.668 C 40.677 80.669,40.406 80.894,40.190 81.168 C 39.973 81.442,39.692 81.667,39.565 81.667 C 39.437 81.667,39.333 81.738,39.333 81.825 C 39.333 82.092,38.558 82.835,38.415 82.706 C 38.341 82.638,38.332 82.675,38.396 82.786 C 38.468 82.911,38.287 83.135,37.925 83.369 C 37.602 83.579,37.337 83.820,37.335 83.905 C 37.332 84.187,35.143 86.172,34.961 86.059 C 34.862 85.998,34.829 86.025,34.887 86.119 C 35.010 86.317,34.468 87.000,34.189 87.000 C 34.085 87.000,34.000 87.078,34.000 87.173 C 34.000 87.391,32.672 88.667,32.445 88.667 C 32.353 88.667,32.328 88.716,32.388 88.777 C 32.505 88.893,31.539 89.833,31.303 89.833 C 31.228 89.833,31.167 89.950,31.167 90.093 C 31.167 90.236,31.087 90.304,30.989 90.243 C 30.891 90.183,30.770 90.290,30.719 90.483 C 30.669 90.676,30.566 90.833,30.491 90.833 C 30.416 90.833,29.318 91.865,28.052 93.125 C 26.786 94.385,25.412 95.702,25.000 96.052 C 24.587 96.401,24.264 96.738,24.282 96.802 C 24.339 97.011,23.622 97.658,23.450 97.552 C 23.358 97.495,23.320 97.516,23.366 97.599 C 23.412 97.682,23.224 97.975,22.947 98.250 C 22.671 98.525,22.506 98.645,22.581 98.516 C 22.674 98.357,22.656 98.321,22.523 98.402 C 22.416 98.469,22.365 98.583,22.410 98.656 C 22.528 98.846,21.917 99.359,21.751 99.209 C 21.675 99.140,21.667 99.177,21.733 99.292 C 21.807 99.421,21.754 99.500,21.593 99.500 C 21.450 99.500,21.352 99.561,21.375 99.636 C 21.433 99.826,20.155 101.013,19.999 100.916 C 19.833 100.813,19.470 101.248,19.607 101.385 C 19.744 101.522,18.978 102.327,18.708 102.330 C 18.594 102.332,18.519 102.401,18.542 102.483 C 18.565 102.566,18.508 102.645,18.417 102.659 C 18.325 102.673,18.153 102.870,18.034 103.097 C 17.915 103.324,17.746 103.466,17.659 103.412 C 17.571 103.358,17.500 103.387,17.500 103.476 C 17.500 103.745,15.368 105.765,15.145 105.707 C 15.087 105.692,15.049 105.808,15.061 105.965 C 15.073 106.122,14.990 106.231,14.875 106.208 C 14.760 106.185,14.667 106.246,14.667 106.343 C 14.667 106.440,14.592 106.473,14.500 106.417 C 14.408 106.360,14.333 106.431,14.333 106.573 C 14.333 106.716,14.216 106.833,14.073 106.833 C 13.931 106.833,13.855 106.900,13.905 106.981 C 13.955 107.062,13.885 107.222,13.748 107.335 C 13.612 107.448,13.497 107.475,13.494 107.395 C 13.491 107.315,13.381 107.438,13.250 107.667 C 13.119 107.896,13.009 108.022,13.006 107.946 C 12.999 107.795,12.500 108.251,12.500 108.408 C 12.500 108.584,10.022 110.966,9.932 110.877 C 9.885 110.829,9.756 110.987,9.646 111.228 C 9.536 111.469,9.379 111.667,9.297 111.667 C 9.214 111.667,9.201 111.580,9.266 111.474 C 9.340 111.354,9.312 111.327,9.190 111.402 C 9.082 111.469,9.040 111.597,9.096 111.687 C 9.229 111.902,8.508 112.525,8.286 112.387 C 8.188 112.327,8.166 112.364,8.234 112.474 C 8.299 112.580,8.274 112.667,8.177 112.667 C 8.079 112.667,8.000 112.767,8.000 112.889 C 8.000 113.211,7.023 114.034,6.802 113.897 C 6.699 113.834,6.660 113.855,6.716 113.945 C 6.771 114.034,6.689 114.225,6.533 114.368 C 6.377 114.511,6.100 114.821,5.917 115.057 C 5.733 115.292,5.529 115.488,5.462 115.492 C 5.395 115.497,4.926 115.927,4.420 116.450 C 3.914 116.972,3.497 117.329,3.493 117.242 C 3.490 117.155,3.374 117.292,3.235 117.547 C 3.097 117.801,2.913 117.966,2.825 117.912 C 2.738 117.858,2.667 117.889,2.667 117.982 C 2.667 118.217,1.825 119.092,1.647 119.042 C 1.566 119.019,1.500 119.089,1.500 119.198 C 1.500 119.307,1.184 119.682,0.798 120.032 L 0.097 120.667 38.139 120.667 C 73.608 120.667,76.178 120.686,76.132 120.945 C 76.072 121.288,75.463 121.961,75.292 121.876 C 75.223 121.842,75.167 121.879,75.167 121.959 C 75.167 122.241,74.477 122.839,74.282 122.727 C 74.173 122.664,74.137 122.672,74.202 122.745 C 74.267 122.817,73.746 123.448,73.043 124.146 C 72.341 124.845,71.783 125.478,71.804 125.554 C 71.825 125.630,71.779 125.653,71.703 125.606 C 71.626 125.558,71.366 125.721,71.124 125.968 C 70.883 126.215,70.155 126.960,69.508 127.625 C 68.861 128.290,68.257 128.833,68.166 128.833 C 68.074 128.833,68.000 128.907,68.000 128.998 C 68.000 129.285,67.448 129.821,67.262 129.715 C 67.164 129.659,67.137 129.673,67.203 129.746 C 67.332 129.889,65.431 131.833,65.162 131.833 C 65.073 131.833,65.000 131.948,65.000 132.089 C 65.000 132.229,64.831 132.412,64.625 132.495 C 64.419 132.578,64.312 132.650,64.387 132.656 C 64.520 132.666,63.358 133.833,63.215 133.833 C 63.119 133.833,62.131 134.887,61.739 135.410 C 61.564 135.643,61.330 135.833,61.220 135.833 C 61.109 135.833,60.886 136.058,60.723 136.333 C 60.561 136.608,60.332 136.833,60.214 136.833 C 60.096 136.833,60.000 136.946,60.000 137.083 C 60.000 137.221,59.928 137.333,59.841 137.333 C 59.753 137.333,59.272 137.746,58.772 138.250 C 58.271 138.754,57.781 139.167,57.681 139.167 C 57.582 139.167,57.499 139.223,57.497 139.292 C 57.492 139.543,56.543 140.488,56.414 140.371 C 56.340 140.304,56.327 140.381,56.385 140.542 C 56.442 140.702,56.412 140.833,56.317 140.833 C 56.222 140.833,55.699 141.282,55.155 141.831 C 54.612 142.380,54.166 142.774,54.166 142.706 C 54.166 142.639,54.015 142.830,53.832 143.131 C 53.648 143.432,53.379 143.724,53.232 143.780 C 52.961 143.884,52.111 144.667,52.269 144.667 C 52.435 144.667,51.916 145.102,51.614 145.216 C 51.448 145.279,51.358 145.406,51.415 145.497 C 51.474 145.593,51.408 145.621,51.259 145.564 C 51.076 145.493,51.000 145.566,51.000 145.812 C 51.000 146.046,50.861 146.195,50.576 146.267 C 50.342 146.325,50.189 146.411,50.234 146.457 C 50.280 146.502,50.207 146.650,50.073 146.784 C 49.938 146.919,49.633 147.285,49.394 147.598 C 49.156 147.911,48.906 148.167,48.840 148.167 C 48.774 148.167,48.127 148.748,47.402 149.458 L 46.083 150.750 114.833 150.833 L 183.583 150.916 114.667 151.000 L 45.750 151.084 114.630 151.125 C 169.612 151.158,183.526 151.125,183.590 150.958 C 183.633 150.844,183.650 130.539,183.626 105.837 L 183.583 60.924 183.250 61.269 C 183.067 61.458,182.778 61.663,182.609 61.724 C 182.440 61.785,182.263 61.985,182.215 62.168 C 182.167 62.350,182.029 62.500,181.908 62.500 C 181.788 62.500,181.641 62.651,181.583 62.836 C 181.524 63.020,181.412 63.132,181.333 63.083 C 181.255 63.035,181.140 63.156,181.077 63.353 C 180.988 63.634,180.932 63.661,180.818 63.480 C 180.709 63.309,180.671 63.346,180.669 63.625 C 180.668 63.831,180.597 64.000,180.513 64.000 C 180.428 64.000,180.128 64.231,179.846 64.513 C 179.564 64.795,179.329 64.964,179.323 64.888 C 179.317 64.812,179.243 64.924,179.158 65.136 C 179.072 65.348,178.941 65.483,178.865 65.436 C 178.790 65.390,178.597 65.572,178.438 65.842 C 178.278 66.112,178.052 66.333,177.934 66.333 C 177.816 66.333,177.635 66.521,177.530 66.751 C 177.425 66.981,177.282 67.150,177.211 67.126 C 177.141 67.103,177.066 67.142,177.046 67.213 C 177.009 67.338,176.536 67.797,175.861 68.361 C 175.678 68.514,175.472 68.589,175.404 68.528 C 175.336 68.467,175.334 68.511,175.401 68.626 C 175.477 68.759,175.379 68.893,175.136 68.991 C 174.924 69.076,174.815 69.150,174.895 69.156 C 174.975 69.162,174.948 69.278,174.835 69.415 C 174.722 69.551,174.561 69.621,174.477 69.569 C 174.393 69.517,174.344 69.537,174.368 69.613 C 174.431 69.815,173.797 70.497,173.637 70.398 C 173.562 70.352,173.500 70.390,173.500 70.484 C 173.500 70.754,172.800 71.333,172.613 71.217 C 172.508 71.152,172.487 71.225,172.557 71.408 C 172.644 71.634,172.607 71.679,172.400 71.600 C 172.204 71.525,172.157 71.567,172.228 71.753 C 172.295 71.927,172.186 72.064,171.890 72.177 C 171.650 72.268,171.501 72.390,171.559 72.448 C 171.683 72.572,170.981 73.101,170.779 73.036 C 170.704 73.012,170.689 73.069,170.747 73.163 C 170.806 73.256,170.769 73.333,170.667 73.333 C 170.564 73.333,170.530 73.413,170.590 73.511 C 170.656 73.618,170.578 73.668,170.395 73.636 C 170.228 73.607,170.089 73.665,170.087 73.765 C 170.081 74.078,167.690 76.367,167.495 76.247 C 167.389 76.182,167.333 76.231,167.364 76.362 C 167.420 76.606,165.444 78.667,165.154 78.667 C 165.058 78.667,165.027 78.742,165.083 78.833 C 165.140 78.925,165.069 79.000,164.927 79.000 C 164.784 79.000,164.667 79.112,164.667 79.250 C 164.667 79.387,164.610 79.483,164.542 79.463 C 164.473 79.442,163.949 79.892,163.377 80.463 C 162.805 81.033,162.261 81.500,162.169 81.500 C 162.076 81.500,162.000 81.600,162.000 81.722 C 162.000 82.022,161.030 82.872,160.830 82.748 C 160.738 82.691,160.717 82.771,160.781 82.937 C 160.866 83.160,160.826 83.200,160.604 83.114 C 160.421 83.044,160.356 83.069,160.426 83.182 C 160.541 83.367,159.854 83.948,159.613 83.870 C 159.537 83.845,159.520 83.898,159.576 83.988 C 159.631 84.077,159.399 84.398,159.060 84.700 C 158.721 85.003,158.293 85.419,158.109 85.625 C 157.924 85.831,157.674 86.000,157.553 86.000 C 157.432 86.000,157.352 86.059,157.375 86.131 C 157.433 86.313,155.915 87.833,155.675 87.833 C 155.568 87.833,155.514 87.890,155.556 87.958 C 155.655 88.121,155.233 88.511,155.101 88.379 C 155.045 88.323,155.000 88.371,155.000 88.484 C 155.000 88.700,154.601 89.167,154.417 89.167 C 154.251 89.167,153.833 89.623,153.833 89.804 C 153.833 89.892,153.710 90.012,153.560 90.069 C 153.320 90.161,153.315 90.138,153.518 89.879 C 153.729 89.610,153.724 89.604,153.458 89.812 C 153.298 89.938,153.167 90.117,153.167 90.209 C 153.167 90.550,151.950 91.637,151.681 91.537 C 151.444 91.448,151.443 91.470,151.667 91.750 C 151.893 92.033,151.890 92.052,151.627 91.954 C 151.445 91.885,151.352 91.920,151.377 92.048 C 151.399 92.159,151.286 92.240,151.127 92.227 C 150.967 92.215,150.876 92.268,150.925 92.347 C 151.032 92.520,148.833 94.686,148.659 94.578 C 148.591 94.537,148.491 94.681,148.436 94.899 C 148.306 95.417,147.827 95.630,147.924 95.128 C 147.962 94.933,148.088 94.714,148.204 94.640 C 148.367 94.537,148.358 94.504,148.167 94.500 C 148.020 94.497,147.985 94.445,148.083 94.372 C 148.175 94.305,148.276 94.063,148.309 93.833 C 148.341 93.604,148.417 93.379,148.478 93.333 C 148.538 93.287,148.598 93.029,148.611 92.759 C 148.625 92.489,148.754 92.182,148.898 92.076 C 149.043 91.970,149.128 91.850,149.087 91.809 C 149.046 91.768,149.124 91.363,149.261 90.909 C 149.397 90.455,149.507 90.065,149.505 90.042 C 149.466 89.692,149.533 89.501,149.665 89.582 C 149.755 89.638,149.790 89.581,149.741 89.454 C 149.693 89.328,149.743 89.005,149.853 88.737 C 149.964 88.469,150.040 88.189,150.023 88.115 C 150.007 88.040,150.176 87.615,150.399 87.170 C 150.623 86.725,150.765 86.321,150.716 86.271 C 150.666 86.222,150.684 86.047,150.756 85.882 C 150.828 85.718,150.874 85.527,150.860 85.458 C 150.845 85.390,150.896 85.333,150.972 85.333 C 151.048 85.333,151.097 85.165,151.081 84.958 C 151.064 84.752,151.121 84.537,151.208 84.480 C 151.295 84.423,151.377 84.180,151.391 83.939 C 151.405 83.697,151.473 83.500,151.542 83.500 C 151.610 83.500,151.652 83.444,151.635 83.375 C 151.573 83.130,151.862 82.167,151.998 82.167 C 152.073 82.167,152.093 82.005,152.041 81.807 C 151.984 81.588,152.013 81.488,152.115 81.552 C 152.213 81.612,152.289 81.439,152.298 81.136 C 152.306 80.850,152.373 80.571,152.448 80.516 C 152.522 80.461,152.581 80.267,152.578 80.083 C 152.574 79.900,152.612 79.712,152.661 79.667 C 152.971 79.377,153.142 78.852,152.952 78.775 C 152.841 78.730,152.900 78.686,153.083 78.677 C 153.358 78.664,153.373 78.634,153.168 78.504 C 152.970 78.379,152.962 78.305,153.126 78.140 C 153.240 78.026,153.333 77.719,153.333 77.457 C 153.333 77.123,153.396 77.016,153.542 77.100 C 153.656 77.166,153.699 77.164,153.638 77.095 C 153.576 77.026,153.631 76.672,153.759 76.307 C 153.888 75.943,153.978 75.594,153.961 75.531 C 153.944 75.468,154.010 75.267,154.109 75.083 C 154.208 74.900,154.344 74.450,154.410 74.083 C 154.476 73.717,154.607 73.323,154.702 73.208 C 154.797 73.094,154.818 73.000,154.750 73.000 C 154.682 73.000,154.704 72.906,154.799 72.792 C 154.981 72.572,154.998 72.508,155.003 72.042 C 155.004 71.847,155.047 71.816,155.131 71.947 C 155.200 72.056,155.264 71.834,155.274 71.454 C 155.284 71.074,155.377 70.735,155.481 70.701 C 155.584 70.666,155.629 70.573,155.580 70.494 C 155.531 70.415,155.674 69.971,155.897 69.508 C 156.121 69.045,156.282 68.535,156.257 68.375 C 156.231 68.214,156.270 68.006,156.345 67.911 C 156.419 67.817,156.515 67.554,156.557 67.328 C 156.710 66.515,156.882 65.914,157.009 65.750 C 157.080 65.658,157.142 65.508,157.146 65.417 C 157.168 64.924,157.554 63.667,157.683 63.667 C 157.766 63.667,157.821 63.610,157.806 63.542 C 157.791 63.473,157.833 63.225,157.899 62.990 C 157.966 62.756,158.036 62.456,158.056 62.324 C 158.076 62.191,158.163 61.971,158.250 61.833 C 158.337 61.696,158.424 61.471,158.444 61.333 C 158.588 60.352,158.718 59.970,158.935 59.886 C 159.073 59.834,159.147 59.688,159.099 59.564 C 158.954 59.185,159.528 57.114,159.709 57.366 C 159.820 57.520,159.835 57.493,159.763 57.271 C 159.707 57.099,159.731 56.874,159.816 56.771 C 159.902 56.668,159.974 56.508,159.976 56.417 C 159.986 56.009,160.391 54.833,160.521 54.833 C 160.600 54.833,160.637 54.665,160.604 54.458 C 160.570 54.252,160.647 53.878,160.775 53.627 C 160.902 53.376,160.992 53.151,160.974 53.127 C 160.874 52.996,161.577 50.833,161.719 50.833 C 161.813 50.833,161.845 50.789,161.791 50.736 C 161.699 50.643,162.095 49.093,162.294 48.764 C 162.345 48.680,162.404 48.392,162.425 48.124 C 162.446 47.856,162.547 47.553,162.648 47.452 C 162.750 47.350,162.835 47.150,162.837 47.008 C 162.839 46.866,163.018 46.320,163.234 45.794 C 163.451 45.268,163.547 44.888,163.449 44.948 C 163.350 45.009,163.425 44.802,163.615 44.488 C 163.805 44.174,163.937 43.775,163.908 43.602 C 163.879 43.429,163.959 43.129,164.086 42.935 C 164.212 42.742,164.361 42.321,164.416 42.000 C 164.472 41.679,164.584 41.393,164.666 41.364 C 164.748 41.335,164.773 41.203,164.722 41.070 C 164.671 40.938,164.719 40.721,164.829 40.589 C 164.939 40.456,164.984 40.276,164.929 40.187 C 164.875 40.099,164.925 39.927,165.040 39.805 C 165.156 39.683,165.276 39.433,165.308 39.250 C 165.339 39.067,165.437 38.828,165.526 38.721 C 165.615 38.613,165.671 38.425,165.651 38.304 C 165.630 38.183,165.654 37.971,165.702 37.833 C 165.858 37.392,166.354 35.660,166.415 35.344 C 166.447 35.176,166.629 34.716,166.820 34.322 C 167.218 33.497,167.231 33.440,166.988 33.591 C 166.863 33.668,166.859 33.608,166.976 33.392 C 167.210 32.958,167.391 32.439,167.360 32.292 C 167.345 32.223,167.413 32.167,167.511 32.167 C 167.611 32.167,167.644 32.026,167.588 31.847 C 167.532 31.672,167.564 31.480,167.660 31.421 C 167.755 31.362,167.833 31.157,167.833 30.965 C 167.833 30.619,167.830 30.619,167.509 30.990 C 167.318 31.210,167.102 31.313,166.983 31.240 C 166.860 31.163,166.825 31.185,166.894 31.297 C 166.956 31.397,166.519 31.976,165.920 32.586 C 165.322 33.196,164.833 33.651,164.833 33.597 C 164.833 33.544,164.683 33.650,164.500 33.833 C 164.317 34.017,164.167 34.229,164.167 34.306 C 164.167 34.483,163.169 35.379,163.161 35.210 C 163.158 35.140,163.064 35.247,162.952 35.447 C 162.841 35.648,162.675 35.831,162.583 35.855 C 162.348 35.916,162.025 36.233,162.088 36.339 C 162.118 36.388,161.958 36.576,161.734 36.756 C 160.945 37.389,159.667 38.675,159.667 38.837 C 159.667 38.927,159.512 39.000,159.323 39.000 C 159.135 39.000,159.025 39.072,159.080 39.161 C 159.134 39.249,159.026 39.474,158.839 39.661 C 158.653 39.847,158.500 39.953,158.500 39.896 C 158.500 39.839,158.388 39.885,158.252 39.998 C 158.115 40.112,158.045 40.271,158.095 40.352 C 158.145 40.433,158.111 40.500,158.019 40.500 C 157.927 40.500,157.126 41.211,156.239 42.081 C 155.333 42.970,154.545 43.615,154.439 43.554 C 154.335 43.495,154.306 43.508,154.374 43.583 C 154.543 43.770,154.171 44.189,153.955 44.056 C 153.859 43.996,153.831 44.028,153.893 44.128 C 154.003 44.306,151.330 47.167,151.055 47.167 C 150.976 47.167,150.838 47.335,150.748 47.542 C 150.657 47.748,150.415 47.991,150.208 48.081 C 150.002 48.172,149.833 48.313,149.833 48.395 C 149.833 48.540,149.055 49.333,148.914 49.333 C 148.758 49.333,147.833 50.336,147.833 50.504 C 147.833 50.604,147.769 50.647,147.691 50.598 C 147.613 50.550,147.462 50.700,147.357 50.931 C 147.252 51.163,147.096 51.309,147.011 51.257 C 146.927 51.205,146.809 51.313,146.751 51.498 C 146.692 51.682,146.588 51.833,146.519 51.833 C 146.325 51.833,144.833 53.306,144.833 53.497 C 144.833 53.590,144.732 53.667,144.608 53.667 C 144.484 53.667,144.212 53.890,144.003 54.163 C 143.794 54.436,143.546 54.612,143.452 54.554 C 143.359 54.496,143.329 54.524,143.386 54.617 C 143.519 54.833,142.771 55.544,142.586 55.377 C 142.509 55.307,142.501 55.344,142.566 55.458 C 142.641 55.589,142.585 55.667,142.417 55.667 C 142.268 55.667,142.186 55.730,142.234 55.808 C 142.332 55.966,141.489 56.768,141.292 56.706 C 141.223 56.684,141.167 56.777,141.167 56.911 C 141.167 57.045,140.998 57.243,140.792 57.350 C 140.336 57.587,139.833 58.093,139.833 58.315 C 139.833 58.538,138.904 59.182,138.773 59.051 C 138.714 58.992,138.667 59.079,138.667 59.244 C 138.667 59.566,137.214 61.111,136.977 61.042 C 136.898 61.019,136.833 61.113,136.833 61.250 C 136.833 61.475,136.635 61.574,136.292 61.520 C 136.223 61.509,136.167 61.615,136.167 61.755 C 136.167 61.896,136.054 62.054,135.917 62.106 C 135.779 62.159,135.667 62.278,135.667 62.370 C 135.667 62.601,134.484 63.667,134.229 63.667 C 134.115 63.667,133.973 63.822,133.913 64.011 C 133.853 64.201,133.567 64.501,133.277 64.678 C 132.987 64.854,132.806 64.999,132.875 64.999 C 132.944 65.000,132.700 65.300,132.333 65.667 C 131.967 66.033,131.592 66.333,131.500 66.333 C 131.408 66.333,131.352 66.399,131.375 66.478 C 131.412 66.607,130.096 67.967,128.742 69.197 C 128.471 69.443,127.961 69.950,127.608 70.322 C 127.255 70.695,126.911 71.000,126.843 71.000 C 126.775 71.000,126.635 71.188,126.530 71.417 C 126.426 71.646,126.259 71.833,126.160 71.833 C 126.061 71.833,126.034 71.747,126.099 71.641 C 126.174 71.521,126.145 71.494,126.023 71.569 C 125.916 71.635,125.869 71.757,125.920 71.839 C 126.054 72.055,125.355 72.700,125.135 72.564 C 125.029 72.498,124.995 72.523,125.056 72.622 C 125.187 72.834,124.769 73.213,124.596 73.040 C 124.528 72.972,124.497 73.001,124.528 73.105 C 124.608 73.377,123.677 74.500,123.370 74.500 C 123.228 74.500,123.153 74.541,123.203 74.592 C 123.254 74.643,122.879 75.074,122.371 75.550 C 120.319 77.474,119.221 78.599,119.114 78.886 C 119.053 79.052,118.929 79.142,118.839 79.087 C 118.749 79.031,118.566 79.120,118.433 79.285 C 118.299 79.449,117.990 79.827,117.747 80.125 C 117.503 80.423,117.201 80.667,117.074 80.667 C 116.948 80.667,116.758 80.835,116.652 81.042 C 116.360 81.610,115.635 82.333,115.358 82.333 C 115.222 82.333,115.158 82.381,115.216 82.439 C 115.323 82.545,114.866 83.012,113.782 83.907 C 113.455 84.177,113.224 84.458,113.270 84.532 C 113.316 84.606,113.232 84.667,113.083 84.667 C 112.935 84.667,112.860 84.742,112.917 84.833 C 112.973 84.925,112.861 85.000,112.667 85.000 C 112.473 85.000,112.354 85.066,112.404 85.147 C 112.522 85.338,111.671 86.189,111.480 86.071 C 111.399 86.021,111.333 86.094,111.333 86.232 C 111.333 86.370,111.202 86.560,111.042 86.653 C 110.881 86.747,110.813 86.825,110.891 86.828 C 110.969 86.831,110.750 87.077,110.405 87.375 C 109.689 87.993,109.389 88.301,108.917 88.904 C 108.733 89.138,108.490 89.331,108.375 89.332 C 108.260 89.333,108.167 89.413,108.167 89.510 C 108.167 89.607,108.094 89.641,108.005 89.586 C 107.916 89.531,107.795 89.677,107.737 89.910 C 107.678 90.143,107.526 90.333,107.399 90.333 C 107.271 90.333,107.167 90.450,107.167 90.593 C 107.167 90.736,107.105 90.815,107.029 90.768 C 106.953 90.721,106.646 90.979,106.347 91.342 C 106.047 91.704,105.734 91.958,105.651 91.907 C 105.568 91.856,105.500 91.892,105.500 91.987 C 105.500 92.082,104.169 93.474,102.542 95.080 C 98.487 99.083,98.502 99.068,98.501 99.208 C 98.500 99.277,98.367 99.333,98.204 99.333 C 97.958 99.333,97.199 99.993,97.295 100.123 C 97.392 100.255,97.093 100.667,96.899 100.667 C 96.771 100.667,96.667 100.766,96.667 100.889 C 96.667 101.011,96.479 101.211,96.250 101.333 C 96.021 101.456,95.865 101.587,95.903 101.625 C 96.021 101.743,95.449 102.322,95.304 102.232 C 95.228 102.185,95.167 102.264,95.167 102.407 C 95.167 102.550,95.054 102.667,94.917 102.667 C 94.779 102.667,94.667 102.784,94.667 102.927 C 94.667 103.069,94.591 103.140,94.499 103.083 C 94.407 103.026,94.286 103.096,94.231 103.238 C 94.177 103.381,94.070 103.460,93.994 103.413 C 93.918 103.366,93.802 103.416,93.736 103.523 C 93.660 103.645,93.687 103.674,93.808 103.599 C 93.913 103.534,94.000 103.542,94.000 103.617 C 94.000 103.779,93.301 104.252,93.132 104.204 C 93.067 104.186,92.892 104.428,92.743 104.742 C 92.576 105.093,92.386 105.279,92.247 105.226 C 92.114 105.175,91.917 105.344,91.763 105.641 C 91.620 105.917,91.347 106.193,91.156 106.253 C 90.965 106.314,90.851 106.406,90.903 106.458 C 91.037 106.592,90.657 107.014,90.493 106.912 C 90.418 106.866,90.314 106.964,90.262 107.130 C 90.066 107.746,88.833 108.753,88.833 108.297 C 88.833 108.079,88.927 107.799,89.042 107.676 C 89.211 107.493,89.203 107.474,89.000 107.571 C 88.862 107.637,88.896 107.573,89.074 107.429 C 89.251 107.285,89.310 107.167,89.204 107.167 C 89.078 107.167,89.121 106.911,89.332 106.420 C 89.596 105.804,90.023 104.504,90.072 104.167 C 90.109 103.913,90.576 102.508,90.775 102.051 C 90.902 101.759,90.996 101.459,90.983 101.385 C 90.907 100.939,91.006 100.751,91.185 101.000 C 91.336 101.211,91.350 101.204,91.270 100.957 C 91.218 100.796,91.260 100.458,91.362 100.207 C 91.541 99.768,91.575 99.613,91.638 98.948 C 91.655 98.774,91.745 98.695,91.851 98.761 C 91.975 98.838,91.999 98.759,91.923 98.521 C 91.858 98.315,91.883 98.167,91.984 98.167 C 92.079 98.167,92.113 98.054,92.060 97.917 C 92.008 97.779,92.040 97.667,92.133 97.667 C 92.226 97.667,92.263 97.517,92.215 97.333 C 92.167 97.150,92.207 97.000,92.304 97.000 C 92.401 97.000,92.452 96.850,92.417 96.667 C 92.374 96.443,92.445 96.329,92.635 96.320 C 92.803 96.312,92.834 96.274,92.711 96.224 C 92.555 96.161,92.569 95.996,92.774 95.529 C 93.018 94.971,93.115 94.595,93.153 94.054 C 93.160 93.946,93.275 93.748,93.408 93.615 C 93.759 93.265,93.956 92.412,93.649 92.571 C 93.482 92.657,93.487 92.629,93.667 92.471 C 93.804 92.349,93.913 92.100,93.908 91.917 C 93.903 91.733,93.991 91.358,94.104 91.083 C 94.442 90.259,94.563 89.926,94.588 89.750 C 94.725 88.803,94.893 88.326,95.019 88.525 C 95.135 88.708,95.165 88.703,95.182 88.500 C 95.288 87.200,95.488 86.333,95.682 86.333 C 95.760 86.333,95.779 86.218,95.725 86.077 C 95.670 85.936,95.748 85.686,95.897 85.522 C 96.046 85.357,96.122 85.178,96.067 85.123 C 96.012 85.067,96.026 84.927,96.098 84.810 C 96.170 84.693,96.249 84.408,96.274 84.176 C 96.299 83.944,96.397 83.729,96.493 83.697 C 96.588 83.665,96.667 83.566,96.667 83.476 C 96.667 83.387,96.573 83.361,96.458 83.419 C 96.344 83.477,96.369 83.425,96.515 83.304 C 96.660 83.183,96.749 82.994,96.712 82.884 C 96.675 82.775,96.741 82.512,96.858 82.301 C 96.975 82.090,97.051 81.848,97.026 81.765 C 96.962 81.544,97.349 80.667,97.511 80.667 C 97.586 80.667,97.619 80.521,97.585 80.342 C 97.506 79.934,97.849 79.001,98.078 78.997 C 98.173 78.996,98.138 78.921,98.000 78.831 C 97.778 78.685,97.778 78.648,98.000 78.503 C 98.138 78.412,98.191 78.337,98.119 78.336 C 98.047 78.334,98.077 78.168,98.185 77.965 C 98.294 77.763,98.395 77.482,98.410 77.340 C 98.479 76.718,98.727 76.067,98.969 75.875 C 99.113 75.760,99.151 75.667,99.055 75.667 C 98.933 75.667,98.934 75.465,99.058 75.000 C 99.155 74.633,99.291 74.333,99.358 74.333 C 99.426 74.333,99.451 74.180,99.415 73.992 C 99.379 73.803,99.453 73.610,99.581 73.561 C 99.708 73.512,99.771 73.366,99.722 73.236 C 99.672 73.106,99.695 73.000,99.774 73.000 C 99.852 72.999,99.924 72.781,99.934 72.514 C 99.943 72.248,100.102 71.723,100.288 71.348 C 100.473 70.973,100.558 70.667,100.476 70.667 C 100.394 70.667,100.483 70.359,100.675 69.984 C 100.867 69.608,100.989 69.211,100.947 69.102 C 100.905 68.992,100.975 68.760,101.102 68.586 C 101.229 68.412,101.333 68.061,101.333 67.807 C 101.333 67.552,101.471 67.097,101.640 66.797 C 101.808 66.496,101.914 66.156,101.876 66.042 C 101.837 65.927,101.880 65.833,101.971 65.833 C 102.063 65.833,102.117 65.702,102.093 65.542 C 102.069 65.381,102.167 65.069,102.311 64.849 C 102.455 64.628,102.584 64.253,102.598 64.016 C 102.612 63.778,102.642 63.565,102.666 63.542 C 102.689 63.519,102.727 63.425,102.750 63.333 C 102.773 63.242,102.812 63.110,102.838 63.042 C 102.863 62.973,102.902 62.842,102.923 62.750 C 102.944 62.658,102.976 62.546,102.993 62.500 C 103.011 62.454,103.057 62.245,103.096 62.036 C 103.134 61.827,103.298 61.455,103.458 61.209 C 103.639 60.932,103.666 60.815,103.528 60.900 C 103.366 61.000,103.378 60.897,103.573 60.520 C 103.720 60.236,103.833 59.984,103.825 59.960 C 103.817 59.936,103.890 59.706,103.988 59.447 C 104.086 59.189,104.167 58.838,104.167 58.666 C 104.167 58.494,104.243 58.306,104.336 58.248 C 104.429 58.191,104.462 58.074,104.410 57.988 C 104.357 57.903,104.372 57.740,104.444 57.625 C 104.516 57.510,104.600 57.229,104.631 57.000 C 104.662 56.771,104.753 56.560,104.834 56.531 C 104.915 56.502,104.940 56.371,104.889 56.239 C 104.839 56.108,104.885 56.000,104.992 56.000 C 105.099 56.000,105.141 55.927,105.086 55.838 C 105.031 55.749,105.103 55.450,105.247 55.173 C 105.390 54.897,105.497 54.651,105.486 54.627 C 105.445 54.542,105.854 53.073,106.090 52.458 C 106.223 52.115,106.282 51.833,106.223 51.833 C 106.164 51.833,106.258 51.670,106.433 51.471 C 106.607 51.272,106.651 51.168,106.529 51.239 C 106.359 51.338,106.345 51.297,106.467 51.059 C 106.888 50.239,107.154 49.488,106.986 49.592 C 106.872 49.662,106.885 49.554,107.019 49.312 C 107.140 49.094,107.241 48.867,107.244 48.806 C 107.247 48.744,107.301 48.643,107.364 48.581 C 107.426 48.518,107.440 48.370,107.394 48.251 C 107.348 48.131,107.391 47.984,107.489 47.924 C 107.587 47.863,107.667 47.635,107.667 47.417 C 107.667 47.198,107.747 46.970,107.845 46.910 C 107.943 46.849,107.981 46.691,107.930 46.558 C 107.873 46.410,107.908 46.360,108.020 46.429 C 108.140 46.503,108.166 46.427,108.096 46.205 C 108.031 46.001,108.089 45.768,108.243 45.614 C 108.434 45.423,108.446 45.340,108.290 45.277 C 108.133 45.213,108.136 45.190,108.302 45.180 C 108.421 45.173,108.473 45.092,108.417 45.000 C 108.360 44.908,108.398 44.833,108.500 44.833 C 108.602 44.833,108.641 44.760,108.585 44.670 C 108.530 44.580,108.578 44.337,108.693 44.128 C 108.808 43.920,108.880 43.611,108.854 43.440 C 108.822 43.230,108.873 43.171,109.012 43.258 C 109.137 43.334,109.176 43.316,109.111 43.212 C 108.978 42.996,109.311 42.000,109.516 42.000 C 109.599 42.000,109.666 41.869,109.664 41.708 C 109.662 41.457,109.637 41.451,109.487 41.667 C 109.353 41.857,109.339 41.817,109.428 41.500 C 109.492 41.271,109.614 41.039,109.698 40.985 C 109.782 40.930,109.838 40.818,109.822 40.735 C 109.744 40.320,109.850 39.990,110.026 40.099 C 110.135 40.167,110.173 40.146,110.115 40.051 C 110.015 39.890,110.367 38.560,111.252 35.750 C 111.483 35.017,111.671 34.323,111.670 34.208 C 111.668 34.094,111.746 34.000,111.843 34.000 C 111.940 34.000,111.975 33.928,111.921 33.840 C 111.867 33.752,111.894 33.546,111.982 33.382 C 112.235 32.910,112.389 32.434,112.355 32.221 C 112.338 32.114,112.478 31.752,112.666 31.417 C 112.854 31.082,112.926 30.860,112.825 30.922 C 112.695 31.002,112.691 30.945,112.810 30.726 C 113.090 30.212,113.335 29.305,113.237 29.146 C 113.187 29.065,113.258 28.954,113.396 28.902 C 113.533 28.849,113.605 28.699,113.555 28.570 C 113.505 28.440,113.531 28.333,113.613 28.333 C 113.695 28.333,113.773 28.202,113.786 28.042 C 113.833 27.445,113.978 26.852,114.159 26.515 C 114.261 26.323,114.286 26.164,114.214 26.162 C 114.142 26.159,114.208 26.084,114.359 25.995 C 114.515 25.905,114.602 25.704,114.558 25.537 C 114.515 25.374,114.572 25.017,114.684 24.745 C 114.796 24.473,114.877 24.199,114.864 24.136 C 114.851 24.074,114.965 23.736,115.118 23.386 C 115.270 23.036,115.376 22.649,115.353 22.525 C 115.330 22.401,115.372 22.338,115.447 22.384 C 115.522 22.430,115.589 22.307,115.596 22.109 C 115.617 21.559,115.726 21.271,116.000 21.048 C 116.153 20.923,116.175 20.842,116.056 20.839 C 115.847 20.833,116.136 19.833,116.347 19.833 C 116.406 19.833,116.435 19.656,116.411 19.440 C 116.387 19.224,116.463 18.830,116.579 18.565 C 116.695 18.300,116.929 17.621,117.099 17.055 C 117.269 16.489,117.459 16.058,117.522 16.097 C 117.584 16.135,117.598 16.025,117.553 15.851 C 117.507 15.677,117.567 15.358,117.686 15.142 C 117.804 14.926,117.927 14.578,117.957 14.369 C 117.988 14.159,118.095 13.784,118.195 13.535 C 118.295 13.287,118.388 12.920,118.402 12.720 C 118.415 12.521,118.574 12.189,118.755 11.983 C 118.936 11.778,118.990 11.664,118.875 11.731 C 118.760 11.798,118.667 11.774,118.667 11.677 C 118.667 11.579,118.742 11.500,118.833 11.500 C 118.925 11.500,118.986 11.444,118.968 11.375 C 118.905 11.126,119.205 10.074,119.450 9.688 C 119.600 9.452,119.620 9.342,119.500 9.417 C 119.389 9.485,119.426 9.348,119.580 9.111 C 119.735 8.875,119.819 8.611,119.766 8.526 C 119.713 8.440,119.813 8.006,119.988 7.560 C 120.163 7.115,120.404 6.394,120.523 5.958 C 120.642 5.523,120.791 5.167,120.854 5.167 C 120.917 5.167,120.927 5.005,120.875 4.807 C 120.805 4.540,120.837 4.482,120.999 4.583 C 121.147 4.674,121.178 4.653,121.095 4.518 C 121.027 4.409,121.059 4.213,121.167 4.083 C 121.274 3.954,121.321 3.782,121.271 3.701 C 121.222 3.621,121.358 3.036,121.574 2.402 C 122.195 0.580,122.200 0.556,121.919 0.556 C 121.780 0.556,121.657 0.581,121.646 0.611 " stroke="none" fill="#b4b4ac" fill-rule="evenodd"></path><path id="path1" d="M214.223 36.413 C 213.888 36.647,213.870 36.808,213.844 39.912 L 213.817 43.165 214.234 43.583 C 214.641 43.990,214.711 44.000,217.076 44.000 L 219.500 44.000 219.500 63.333 L 219.500 82.667 216.942 82.667 C 213.593 82.667,213.850 82.346,213.848 86.541 C 213.848 89.726,213.858 89.832,214.211 90.079 C 214.837 90.518,236.477 90.457,237.023 90.015 C 237.403 89.708,237.419 89.603,237.470 86.980 C 237.561 82.406,237.791 82.667,233.655 82.667 L 230.500 82.667 230.500 74.590 L 230.500 66.513 237.808 66.465 C 243.741 66.426,245.168 66.373,245.394 66.186 C 245.642 65.979,245.668 65.521,245.628 61.943 L 245.583 57.932 245.167 57.816 C 244.938 57.752,241.544 57.692,237.625 57.683 L 230.500 57.667 230.500 51.333 L 230.500 45.000 235.397 45.000 L 240.295 45.000 240.360 47.833 C 240.449 51.703,240.093 51.417,244.820 51.417 C 248.171 51.417,248.493 51.391,248.816 51.099 C 249.344 50.621,249.371 36.621,248.844 36.339 C 248.275 36.035,214.661 36.106,214.223 36.413 M252.173 36.531 C 251.856 36.872,251.833 37.106,251.833 40.103 L 251.833 43.309 252.272 43.655 C 252.672 43.969,252.935 44.000,255.189 44.000 L 257.667 44.000 257.667 63.333 L 257.667 82.667 255.009 82.667 C 251.589 82.667,251.833 82.369,251.833 86.537 C 251.833 90.853,250.321 90.333,262.885 90.333 C 275.505 90.333,274.000 90.848,274.000 86.531 C 274.000 82.388,274.217 82.667,270.991 82.667 L 268.500 82.667 268.500 75.417 L 268.500 68.167 270.383 68.167 L 272.266 68.167 274.065 71.708 C 275.055 73.656,276.790 77.087,277.921 79.333 C 279.053 81.579,280.314 84.035,280.724 84.792 C 281.133 85.548,281.433 86.167,281.390 86.167 C 281.346 86.167,281.457 86.373,281.637 86.625 C 281.816 86.877,281.963 87.121,281.962 87.167 C 281.958 87.435,283.068 89.525,283.410 89.894 L 283.817 90.333 298.117 90.328 C 310.603 90.323,312.459 90.291,312.750 90.071 C 313.059 89.838,313.087 89.592,313.135 86.695 C 313.202 82.583,313.254 82.667,310.670 82.667 L 308.865 82.667 309.004 82.125 C 309.080 81.827,309.270 81.096,309.427 80.500 C 309.583 79.904,309.807 79.042,309.926 78.583 C 310.045 78.125,310.245 77.375,310.371 76.917 L 310.600 76.083 317.345 76.040 L 324.090 75.996 324.295 76.790 C 324.407 77.226,324.525 77.733,324.556 77.917 C 324.587 78.100,324.710 78.543,324.828 78.902 C 324.947 79.261,325.212 80.236,325.417 81.069 L 325.789 82.583 324.020 82.627 C 321.564 82.687,321.667 82.518,321.667 86.512 C 321.667 90.840,320.325 90.333,331.781 90.333 C 343.176 90.333,341.833 90.835,341.833 86.577 C 341.833 82.503,341.935 82.667,339.420 82.667 L 337.545 82.667 337.298 81.958 C 337.163 81.569,336.917 80.800,336.754 80.250 C 336.590 79.700,336.363 78.950,336.249 78.583 C 336.136 78.217,335.913 77.467,335.754 76.917 C 335.595 76.367,335.370 75.617,335.254 75.250 C 335.139 74.883,334.912 74.133,334.751 73.583 C 334.589 73.033,334.364 72.283,334.251 71.917 C 334.137 71.550,333.910 70.800,333.746 70.250 C 333.583 69.700,333.354 68.950,333.238 68.583 C 333.122 68.217,332.795 67.129,332.511 66.167 C 332.227 65.204,331.914 64.192,331.814 63.917 C 331.715 63.642,331.572 63.154,331.497 62.833 C 331.422 62.512,331.087 61.387,330.752 60.333 C 330.417 59.279,330.085 58.192,330.014 57.917 C 329.944 57.642,329.790 57.117,329.672 56.750 C 329.398 55.896,329.126 55.005,328.758 53.750 C 328.597 53.200,328.370 52.450,328.254 52.083 C 328.139 51.717,327.912 50.967,327.751 50.417 C 327.589 49.867,327.366 49.117,327.254 48.750 C 327.143 48.383,326.917 47.633,326.754 47.083 C 326.590 46.533,326.361 45.783,326.246 45.417 C 326.130 45.050,325.903 44.300,325.742 43.750 C 325.581 43.200,325.356 42.450,325.242 42.083 C 325.128 41.717,324.913 41.004,324.763 40.500 C 324.069 38.157,323.636 36.895,323.408 36.546 L 323.159 36.167 317.760 36.167 L 312.361 36.167 312.014 36.728 C 311.823 37.037,311.667 37.447,311.667 37.639 C 311.667 37.831,311.563 38.235,311.436 38.536 C 311.213 39.066,311.028 39.650,310.414 41.750 C 310.254 42.300,310.030 43.012,309.917 43.333 C 309.804 43.654,309.579 44.367,309.417 44.917 C 309.255 45.467,309.028 46.217,308.912 46.583 C 308.797 46.950,308.571 47.700,308.412 48.250 C 308.253 48.800,308.030 49.512,307.917 49.833 C 307.804 50.154,307.589 50.829,307.441 51.333 C 307.293 51.837,306.945 52.939,306.669 53.782 C 306.393 54.624,306.167 55.428,306.167 55.568 C 306.167 55.708,306.062 56.068,305.933 56.369 C 305.805 56.670,305.579 57.329,305.432 57.833 C 305.284 58.337,304.951 59.425,304.690 60.250 C 304.156 61.943,303.840 63.043,303.854 63.167 C 303.860 63.212,303.754 63.550,303.619 63.917 C 303.484 64.283,303.242 65.033,303.080 65.583 C 302.918 66.133,302.656 66.958,302.497 67.417 C 302.150 68.418,301.320 71.080,301.264 71.374 C 301.221 71.598,300.450 74.147,300.091 75.250 C 299.844 76.011,299.585 76.856,298.837 79.333 C 298.547 80.296,298.210 81.346,298.089 81.667 C 297.968 81.987,297.880 82.325,297.893 82.417 C 297.908 82.521,296.737 82.600,294.741 82.628 L 291.565 82.674 291.288 82.128 C 291.136 81.829,290.785 81.208,290.508 80.750 C 290.232 80.292,289.928 79.767,289.834 79.583 C 289.739 79.400,289.514 79.025,289.333 78.750 C 289.152 78.475,288.950 78.137,288.885 78.000 C 288.820 77.862,288.332 77.013,287.800 76.111 C 287.268 75.210,286.833 74.447,286.833 74.415 C 286.833 74.353,284.449 70.258,284.166 69.833 C 284.074 69.696,283.923 69.433,283.830 69.250 C 283.738 69.067,283.514 68.692,283.333 68.417 C 283.152 68.142,282.952 67.804,282.889 67.667 C 282.826 67.529,282.601 67.139,282.390 66.800 C 282.123 66.370,282.063 66.147,282.196 66.065 C 282.300 66.001,282.867 65.697,283.456 65.390 C 288.604 62.707,290.901 58.387,290.888 51.417 C 290.872 43.373,287.830 38.958,281.000 37.064 C 277.953 36.219,277.000 36.168,264.381 36.167 L 252.513 36.167 252.173 36.531 M346.204 36.426 C 345.842 36.679,345.833 36.764,345.836 39.968 C 345.839 44.209,345.671 44.000,349.086 44.000 L 351.360 44.000 351.272 44.458 C 351.224 44.710,351.104 46.867,351.006 49.250 C 350.766 55.050,350.395 63.794,350.085 70.917 C 349.946 74.125,349.786 78.081,349.731 79.708 L 349.631 82.667 347.242 82.667 C 344.132 82.667,344.333 82.399,344.333 86.537 C 344.333 90.841,342.999 90.333,354.308 90.333 C 365.588 90.333,364.250 90.849,364.250 86.500 C 364.250 82.426,364.437 82.667,361.283 82.667 L 358.952 82.667 359.061 80.458 C 359.122 79.244,359.207 76.487,359.251 74.333 C 359.392 67.429,359.671 56.501,359.779 53.667 C 359.895 50.616,359.882 50.611,360.581 54.000 C 361.082 56.428,362.094 60.515,362.583 62.083 C 362.697 62.450,362.923 63.200,363.084 63.750 C 363.245 64.300,363.470 65.050,363.584 65.417 C 363.698 65.783,363.923 66.533,364.084 67.083 C 364.245 67.633,364.472 68.383,364.588 68.750 C 364.703 69.117,364.928 69.867,365.087 70.417 C 365.246 70.967,365.469 71.717,365.583 72.083 C 365.696 72.450,365.922 73.200,366.085 73.750 C 366.248 74.300,366.480 75.087,366.602 75.500 C 367.574 78.789,367.071 78.488,371.613 78.495 C 376.040 78.501,375.651 78.696,376.423 76.083 C 376.585 75.533,376.809 74.783,376.921 74.417 C 377.033 74.050,377.256 73.300,377.417 72.750 C 377.579 72.200,377.805 71.450,377.921 71.083 C 378.037 70.717,378.262 69.967,378.420 69.417 C 378.579 68.867,378.802 68.117,378.916 67.750 C 379.030 67.383,379.256 66.633,379.418 66.083 C 379.790 64.827,380.157 63.611,380.424 62.750 C 380.902 61.213,381.397 59.338,381.921 57.083 C 382.071 56.442,382.290 55.504,382.409 55.000 C 382.529 54.496,382.755 53.446,382.912 52.667 C 383.068 51.887,383.251 50.987,383.317 50.667 C 383.455 49.997,383.664 57.059,383.670 62.583 C 383.672 64.600,383.783 69.063,383.917 72.500 C 384.050 75.938,384.161 79.631,384.163 80.708 L 384.167 82.667 381.843 82.667 C 378.810 82.667,379.000 82.408,379.000 86.537 C 379.000 89.444,379.024 89.690,379.333 90.000 C 379.786 90.452,397.989 90.520,398.583 90.071 C 399.120 89.666,399.189 83.785,398.664 83.118 L 398.309 82.667 395.905 82.667 L 393.500 82.667 393.494 80.958 C 393.491 80.019,393.462 78.837,393.429 78.333 C 393.356 77.204,393.089 71.216,392.752 63.167 C 392.613 59.821,392.384 54.721,392.244 51.833 C 392.104 48.946,391.992 46.008,391.995 45.304 L 392.000 44.025 394.387 43.971 C 397.604 43.898,397.383 44.187,397.375 40.062 C 397.369 37.202,397.333 36.776,397.075 36.491 C 396.642 36.012,381.205 35.981,380.810 36.458 C 380.435 36.912,380.286 37.315,378.917 41.583 C 378.211 43.783,377.536 45.846,377.416 46.167 C 377.297 46.487,376.847 47.875,376.417 49.250 C 375.987 50.625,375.530 51.996,375.401 52.297 C 375.272 52.598,375.167 52.952,375.167 53.083 C 375.167 53.215,375.060 53.568,374.929 53.869 C 374.798 54.170,374.345 55.542,373.923 56.917 C 373.500 58.292,373.070 59.679,372.966 60.000 C 372.760 60.638,372.745 60.702,372.041 64.053 L 371.558 66.356 371.351 65.137 C 371.043 63.315,370.457 60.835,369.902 59.000 C 369.457 57.531,368.625 54.907,368.421 54.333 C 367.903 52.873,367.796 52.552,367.674 52.083 C 367.602 51.808,367.468 51.396,367.376 51.167 C 367.285 50.938,367.089 50.337,366.941 49.833 C 366.794 49.329,366.231 47.567,365.691 45.917 C 365.151 44.267,364.275 41.581,363.745 39.948 C 363.215 38.315,362.638 36.796,362.462 36.573 L 362.142 36.167 354.358 36.167 C 347.583 36.167,346.526 36.200,346.204 36.426 M275.228 44.914 C 275.583 44.968,276.089 45.124,276.352 45.260 C 276.615 45.396,276.887 45.505,276.957 45.502 C 277.026 45.499,277.215 45.610,277.377 45.749 C 277.538 45.887,277.711 46.000,277.760 46.000 C 277.810 46.000,278.108 46.281,278.424 46.625 C 280.811 49.227,280.453 55.278,277.759 57.858 C 276.612 58.957,273.458 59.667,269.721 59.667 L 268.500 59.667 268.500 52.146 L 268.500 44.626 271.542 44.721 C 273.215 44.773,274.874 44.860,275.228 44.914 M317.585 48.667 C 317.772 50.452,318.293 53.197,318.914 55.667 C 319.040 56.171,319.265 57.108,319.414 57.750 C 319.562 58.392,319.792 59.348,319.925 59.875 C 320.058 60.402,320.275 61.265,320.408 61.792 C 320.541 62.319,320.772 63.275,320.920 63.917 C 321.068 64.558,321.269 65.383,321.366 65.750 C 321.519 66.329,322.000 68.508,322.000 68.625 C 322.000 68.648,319.707 68.667,316.905 68.667 C 312.099 68.667,311.816 68.650,311.905 68.370 C 312.088 67.795,312.541 66.076,312.661 65.500 C 312.729 65.179,312.876 64.579,312.988 64.167 C 313.100 63.754,313.304 62.967,313.440 62.417 C 313.677 61.463,313.765 61.122,314.395 58.708 C 314.686 57.591,315.025 56.247,315.401 54.708 C 315.984 52.330,316.502 49.445,316.860 46.591 L 317.069 44.931 317.279 46.341 C 317.395 47.116,317.532 48.163,317.585 48.667 M221.205 112.270 C 220.274 112.472,218.686 113.134,217.750 113.710 C 215.451 115.124,213.203 118.997,212.406 122.917 C 212.369 123.100,212.257 123.644,212.157 124.126 C 212.058 124.607,211.952 125.320,211.921 125.709 C 211.438 131.956,211.438 131.412,211.926 137.517 C 211.960 137.940,212.066 138.635,212.162 139.062 C 212.258 139.490,212.379 140.107,212.431 140.435 C 212.483 140.762,212.629 141.324,212.756 141.684 C 212.883 142.044,212.978 142.356,212.966 142.377 C 212.823 142.650,214.233 145.778,215.080 147.066 C 218.381 152.089,224.851 153.335,231.313 150.195 C 231.990 149.866,232.797 149.350,233.108 149.048 L 233.673 148.500 233.628 144.792 L 233.583 141.083 231.667 141.083 L 229.750 141.083 229.667 143.745 L 229.583 146.407 228.917 146.783 C 227.646 147.500,226.356 147.833,224.843 147.834 C 219.490 147.837,216.917 142.372,216.917 131.000 C 216.917 120.161,218.940 116.096,224.339 116.087 C 226.516 116.083,226.772 116.141,228.625 117.064 L 229.333 117.416 229.333 120.038 C 229.333 123.112,229.135 122.877,231.667 122.799 L 233.250 122.750 233.295 118.966 L 233.340 115.182 232.461 114.541 C 229.501 112.381,224.935 111.460,221.205 112.270 M249.440 113.875 C 249.269 114.448,249.036 115.179,248.920 115.500 C 248.805 115.821,248.589 116.496,248.441 117.000 C 248.293 117.504,247.946 118.629,247.670 119.500 C 247.395 120.371,247.047 121.496,246.896 122.000 C 246.746 122.504,246.525 123.217,246.406 123.583 C 246.084 124.576,245.197 127.454,244.891 128.500 C 244.743 129.004,244.530 129.679,244.416 130.000 C 244.303 130.321,244.096 130.958,243.957 131.417 C 243.200 133.908,242.610 135.826,242.416 136.417 C 242.211 137.045,241.443 139.504,240.934 141.167 C 240.441 142.773,239.602 145.460,239.320 146.333 L 239.024 147.250 237.476 147.298 C 235.629 147.356,235.673 147.309,235.669 149.258 C 235.666 151.336,235.095 151.167,242.091 151.167 C 249.176 151.167,248.667 151.314,248.667 149.268 C 248.667 147.311,248.693 147.333,246.327 147.333 C 244.280 147.333,244.218 147.310,244.483 146.633 C 244.566 146.422,244.763 145.762,244.922 145.167 C 245.305 143.728,245.663 142.417,245.924 141.500 C 246.041 141.087,246.183 140.544,246.238 140.292 L 246.340 139.833 252.007 139.833 L 257.674 139.833 257.820 140.208 C 258.033 140.755,259.010 144.098,259.097 144.580 C 259.138 144.806,259.252 145.200,259.351 145.454 C 259.449 145.708,259.553 146.029,259.582 146.167 C 259.612 146.304,259.688 146.623,259.752 146.875 L 259.869 147.333 257.941 147.333 C 255.646 147.333,255.667 147.315,255.667 149.297 C 255.667 151.306,255.174 151.167,262.295 151.167 L 268.314 151.167 268.574 150.796 C 268.876 150.364,268.937 148.172,268.661 147.656 C 268.508 147.370,268.299 147.333,266.831 147.333 L 265.173 147.333 265.071 146.875 C 265.014 146.623,264.869 146.117,264.748 145.750 C 264.627 145.383,264.291 144.296,264.002 143.333 C 263.520 141.730,263.367 141.235,262.738 139.250 C 262.622 138.883,262.292 137.796,262.004 136.833 C 261.716 135.871,261.384 134.783,261.266 134.417 C 261.148 134.050,260.928 133.337,260.778 132.833 C 260.628 132.329,260.279 131.204,260.004 130.333 C 259.728 129.462,259.382 128.337,259.234 127.833 C 259.086 127.329,258.870 126.617,258.754 126.250 C 258.639 125.883,258.412 125.133,258.250 124.583 C 258.088 124.033,257.863 123.321,257.750 123.000 C 257.637 122.679,257.414 121.967,257.255 121.417 C 257.095 120.867,256.870 120.117,256.754 119.750 C 256.639 119.383,256.412 118.633,256.252 118.083 C 256.091 117.533,255.856 116.837,255.730 116.536 C 255.603 116.235,255.500 115.897,255.501 115.786 C 255.501 115.675,255.305 114.965,255.064 114.208 L 254.627 112.833 252.189 112.833 L 249.750 112.833 249.440 113.875 M270.778 112.944 C 270.717 113.006,270.667 113.751,270.667 114.602 C 270.667 116.619,270.725 116.667,273.204 116.667 L 275.000 116.667 275.000 131.995 L 275.000 147.323 272.875 147.370 L 270.750 147.417 270.702 149.059 C 270.634 151.378,269.942 151.167,277.594 151.167 L 284.148 151.167 284.407 150.796 C 284.705 150.371,284.766 148.450,284.504 147.761 L 284.342 147.333 282.087 147.333 L 279.833 147.333 279.833 141.167 L 279.833 135.000 282.835 135.000 C 290.029 135.000,293.847 132.690,295.505 127.333 C 296.332 124.665,296.021 119.493,294.902 117.297 C 294.138 115.796,292.092 113.833,291.292 113.833 C 291.168 113.833,290.995 113.766,290.908 113.684 C 290.150 112.968,271.441 112.281,270.778 112.944 M297.611 112.944 C 297.550 113.006,297.500 113.795,297.500 114.699 C 297.500 116.731,297.390 116.667,300.844 116.667 L 303.333 116.667 303.333 131.996 L 303.333 147.325 300.458 147.371 L 297.583 147.417 297.535 149.059 C 297.467 151.391,296.602 151.167,305.661 151.167 C 314.762 151.167,314.000 151.340,314.000 149.268 C 314.000 147.250,314.132 147.333,310.911 147.333 L 308.167 147.333 308.167 132.000 L 308.167 116.667 310.625 116.664 C 313.880 116.661,313.901 116.650,313.966 114.913 C 313.993 114.182,313.973 113.415,313.921 113.209 L 313.827 112.833 305.775 112.833 C 301.346 112.833,297.672 112.883,297.611 112.944 M316.602 113.096 C 316.397 113.630,316.488 123.421,316.700 123.633 C 317.019 123.953,320.074 123.902,320.405 123.571 C 320.625 123.351,320.667 122.793,320.667 120.071 L 320.667 116.833 323.417 116.833 L 326.167 116.833 326.167 132.078 L 326.167 147.324 323.958 147.370 L 321.750 147.417 321.702 149.153 C 321.667 150.430,321.711 150.925,321.869 151.025 C 322.278 151.285,335.434 151.197,335.653 150.934 C 335.778 150.782,335.829 150.126,335.798 149.059 L 335.750 147.417 333.458 147.370 L 331.167 147.324 331.167 132.079 L 331.167 116.833 334.000 116.833 L 336.833 116.833 336.833 120.011 C 336.833 124.046,336.718 123.833,338.902 123.833 C 341.197 123.833,341.013 124.341,340.961 118.147 L 340.917 112.917 328.810 112.874 C 317.878 112.835,316.693 112.857,316.602 113.096 M353.197 113.121 C 353.113 113.283,352.877 113.979,352.674 114.667 C 352.470 115.354,352.202 116.217,352.078 116.583 C 351.954 116.950,351.615 118.037,351.325 119.000 C 351.035 119.962,350.699 121.050,350.579 121.417 C 350.459 121.783,350.123 122.871,349.833 123.833 C 349.543 124.796,349.206 125.883,349.085 126.250 C 348.963 126.617,348.735 127.367,348.579 127.917 C 348.422 128.467,348.077 129.592,347.811 130.417 C 347.546 131.242,347.207 132.329,347.058 132.833 C 346.908 133.337,346.727 133.938,346.655 134.167 C 346.582 134.396,346.284 135.371,345.991 136.333 C 345.699 137.296,345.250 138.758,344.993 139.583 C 344.469 141.265,343.780 143.491,343.072 145.792 L 342.598 147.333 340.983 147.333 C 339.084 147.333,339.167 147.243,339.167 149.314 C 339.167 151.327,338.610 151.167,345.591 151.167 C 352.676 151.167,352.167 151.314,352.167 149.268 C 352.167 147.310,352.195 147.333,349.816 147.333 C 347.811 147.333,347.811 147.333,347.934 146.958 C 348.160 146.271,348.686 144.424,348.824 143.833 C 348.899 143.512,349.092 142.800,349.252 142.250 C 349.411 141.700,349.625 140.931,349.726 140.542 L 349.909 139.833 355.587 139.833 L 361.264 139.833 361.542 140.708 C 362.117 142.524,362.344 143.290,362.413 143.646 C 362.486 144.027,362.710 144.763,363.104 145.922 C 363.581 147.323,363.589 147.317,361.375 147.370 L 359.417 147.417 359.369 149.059 C 359.301 151.372,358.679 151.167,365.759 151.167 C 372.844 151.167,372.335 151.306,372.331 149.363 C 372.327 147.241,372.415 147.333,370.397 147.333 C 368.941 147.333,368.667 147.292,368.667 147.074 C 368.667 146.931,368.441 146.124,368.164 145.282 C 367.888 144.439,367.539 143.337,367.389 142.833 C 367.238 142.329,367.021 141.617,366.907 141.250 C 366.792 140.883,366.498 139.908,366.253 139.083 C 365.447 136.364,364.809 134.260,364.588 133.583 C 364.468 133.217,364.131 132.129,363.840 131.167 C 363.548 130.204,363.088 128.704,362.818 127.833 C 362.547 126.962,362.203 125.837,362.054 125.333 C 361.904 124.829,361.685 124.117,361.567 123.750 C 361.449 123.383,361.117 122.296,360.829 121.333 C 360.541 120.371,360.208 119.283,360.088 118.917 C 359.968 118.550,359.630 117.462,359.338 116.500 C 359.046 115.537,358.669 114.337,358.502 113.833 L 358.196 112.917 355.773 112.871 C 353.592 112.829,353.334 112.854,353.197 113.121 M374.875 112.951 C 374.289 113.064,374.129 113.571,374.192 115.109 C 374.264 116.844,374.203 116.805,376.679 116.703 L 378.667 116.621 378.673 121.185 C 378.677 123.696,378.749 127.888,378.835 130.500 C 378.920 133.112,379.041 137.957,379.103 141.266 L 379.216 147.281 378.317 147.389 C 377.822 147.448,376.963 147.498,376.408 147.499 C 375.093 147.500,375.000 147.617,375.002 149.242 C 375.006 151.528,374.691 151.334,378.394 151.329 C 383.396 151.322,397.025 150.875,397.187 150.713 C 397.325 150.575,398.689 146.834,398.997 145.750 C 399.075 145.475,399.332 144.733,399.569 144.101 C 400.201 142.414,400.162 142.083,399.292 141.787 C 398.902 141.654,398.321 141.448,398.000 141.328 C 397.679 141.209,397.079 141.105,396.667 141.097 L 395.917 141.083 394.939 144.000 L 393.961 146.917 389.078 146.964 L 384.194 147.012 384.102 145.964 C 384.004 144.843,383.734 133.042,383.574 122.875 L 383.477 116.667 385.249 116.667 C 387.667 116.667,387.667 116.667,387.667 114.841 C 387.667 114.027,387.621 113.242,387.566 113.097 C 387.468 112.844,376.109 112.713,374.875 112.951 M286.750 117.065 C 290.090 117.727,291.543 120.311,290.995 124.615 C 290.373 129.497,288.160 131.000,281.597 131.000 L 279.833 131.000 279.833 123.917 L 279.833 116.833 282.708 116.834 C 284.488 116.834,286.028 116.922,286.750 117.065 M252.614 121.000 C 253.072 122.707,253.190 123.135,253.560 124.417 C 254.108 126.313,254.549 127.952,254.660 128.500 C 254.724 128.821,254.858 129.346,254.957 129.667 C 255.144 130.277,255.516 131.615,255.814 132.750 C 255.910 133.117,256.104 133.841,256.244 134.359 C 256.385 134.877,256.500 135.384,256.500 135.484 C 256.500 135.612,255.175 135.667,252.083 135.667 C 247.099 135.667,247.442 135.777,247.898 134.321 C 248.025 133.915,248.259 133.096,248.418 132.500 C 248.576 131.904,248.813 131.042,248.944 130.583 C 249.074 130.125,249.297 129.337,249.439 128.833 C 249.581 128.329,249.778 127.654,249.877 127.333 C 249.975 127.013,250.115 126.487,250.186 126.167 C 250.258 125.846,250.425 125.208,250.559 124.750 C 251.047 123.076,251.639 120.722,251.858 119.583 C 252.023 118.732,252.098 118.552,252.136 118.917 C 252.165 119.192,252.380 120.129,252.614 121.000 M355.822 119.679 C 355.828 119.914,355.937 120.439,356.064 120.845 C 356.191 121.251,356.425 122.071,356.584 122.667 C 356.743 123.263,356.968 124.087,357.083 124.500 C 357.199 124.912,357.424 125.737,357.583 126.333 C 357.743 126.929,357.968 127.754,358.083 128.167 C 358.199 128.579,358.423 129.404,358.580 130.000 C 358.738 130.596,358.962 131.383,359.079 131.750 C 359.266 132.338,359.526 133.292,359.996 135.125 L 360.135 135.667 355.648 135.667 L 351.160 135.667 351.255 135.208 C 351.307 134.956,351.459 134.356,351.592 133.875 C 352.135 131.909,352.330 131.211,352.560 130.417 C 352.693 129.958,352.838 129.433,352.882 129.250 C 352.926 129.067,353.129 128.317,353.334 127.583 C 353.538 126.850,353.763 126.025,353.833 125.750 C 353.904 125.475,354.128 124.650,354.332 123.917 C 354.717 122.531,355.156 120.680,355.248 120.055 C 355.465 118.580,355.786 118.369,355.822 119.679 " stroke="none" fill="#04446c" fill-rule="evenodd"></path><path id="path2" d="M397.399 40.000 C 397.399 41.237,397.425 41.744,397.457 41.125 C 397.489 40.506,397.489 39.494,397.457 38.875 C 397.425 38.256,397.399 38.762,397.399 40.000 M257.581 63.333 C 257.581 74.013,257.601 78.381,257.625 73.042 C 257.649 67.702,257.649 58.965,257.625 53.625 C 257.601 48.285,257.581 52.654,257.581 63.333 M303.247 132.000 C 303.247 140.479,303.267 143.948,303.292 139.708 C 303.316 135.469,303.316 128.531,303.292 124.292 C 303.267 120.052,303.247 123.521,303.247 132.000 M391.875 146.948 C 392.035 146.990,392.298 146.990,392.458 146.948 C 392.619 146.906,392.488 146.872,392.167 146.872 C 391.846 146.872,391.715 146.906,391.875 146.948 " stroke="none" fill="#044c6c" fill-rule="evenodd"></path><path id="path3" d="M120.866 1.422 C 120.105 2.198,119.529 2.833,119.587 2.833 C 119.645 2.833,120.222 2.307,120.871 1.664 C 121.519 1.021,122.077 0.521,122.110 0.554 C 122.162 0.607,121.561 2.568,121.245 3.375 C 121.182 3.535,121.199 3.667,121.281 3.667 C 121.424 3.667,121.545 3.333,122.094 1.427 C 122.224 0.975,122.374 0.468,122.427 0.302 C 122.600 -0.246,122.266 -0.006,120.866 1.422 M117.697 4.552 C 116.960 5.313,117.030 5.483,117.787 4.769 C 118.128 4.448,118.366 4.144,118.317 4.095 C 118.268 4.045,117.989 4.251,117.697 4.552 M120.995 4.343 C 120.894 4.531,120.836 4.759,120.867 4.850 C 120.897 4.940,121.008 4.786,121.113 4.507 C 121.332 3.927,121.266 3.836,120.995 4.343 M115.586 6.522 C 114.989 7.084,114.506 7.628,114.513 7.730 C 114.521 7.844,114.559 7.835,114.611 7.707 C 114.657 7.592,114.775 7.547,114.873 7.608 C 114.979 7.673,115.003 7.639,114.933 7.526 C 114.866 7.418,114.910 7.330,115.032 7.326 C 115.152 7.321,115.400 7.127,115.583 6.895 C 115.767 6.662,116.142 6.253,116.417 5.986 C 116.692 5.720,116.862 5.501,116.795 5.501 C 116.728 5.500,116.184 5.960,115.586 6.522 M120.453 6.055 C 120.254 6.562,120.302 6.989,120.516 6.620 C 120.611 6.456,120.663 6.194,120.631 6.036 C 120.578 5.775,120.563 5.776,120.453 6.055 M120.036 7.450 C 119.943 7.707,119.814 8.048,119.749 8.208 C 119.673 8.395,119.707 8.500,119.843 8.500 C 119.960 8.500,120.012 8.456,119.959 8.403 C 119.905 8.350,119.972 8.042,120.107 7.718 C 120.242 7.395,120.320 7.097,120.279 7.057 C 120.238 7.016,120.129 7.193,120.036 7.450 M112.516 9.583 C 111.573 10.546,110.859 11.333,110.928 11.333 C 111.053 11.333,113.711 8.684,114.147 8.125 C 114.673 7.450,114.124 7.941,112.516 9.583 M119.487 9.208 C 119.474 9.251,119.429 9.433,119.247 10.167 C 119.168 10.487,119.183 10.523,119.313 10.322 C 119.495 10.041,119.691 9.167,119.572 9.167 C 119.533 9.167,119.494 9.185,119.487 9.208 M109.917 12.167 C 109.751 12.350,109.667 12.500,109.731 12.500 C 109.795 12.500,110.008 12.350,110.205 12.167 C 110.402 11.983,110.485 11.833,110.391 11.833 C 110.296 11.833,110.083 11.983,109.917 12.167 M118.514 12.308 C 118.423 12.477,118.315 12.795,118.274 13.016 C 118.233 13.236,118.152 13.642,118.096 13.917 C 118.000 14.381,118.005 14.388,118.168 14.012 C 118.265 13.790,118.368 13.490,118.397 13.345 C 118.426 13.201,118.506 12.933,118.574 12.750 C 118.871 11.955,118.837 11.704,118.514 12.308 M107.972 14.130 C 107.829 14.288,107.244 14.853,106.673 15.387 C 106.102 15.920,105.674 16.396,105.723 16.445 C 105.771 16.493,106.389 15.962,107.097 15.263 C 107.804 14.565,108.349 13.960,108.308 13.919 C 108.266 13.877,108.115 13.972,107.972 14.130 M117.692 15.125 C 117.608 15.285,117.494 15.679,117.438 16.000 C 117.331 16.617,117.410 16.481,117.752 15.458 C 117.974 14.796,117.946 14.641,117.692 15.125 M117.019 17.183 C 116.917 17.476,116.841 17.836,116.850 17.983 C 116.859 18.130,116.970 17.918,117.098 17.512 C 117.365 16.662,117.298 16.383,117.019 17.183 M103.567 18.395 C 101.857 20.148,101.275 20.927,102.773 19.458 C 103.310 18.930,103.919 18.359,104.125 18.188 C 104.331 18.017,104.500 17.793,104.500 17.689 C 104.500 17.585,104.594 17.500,104.710 17.500 C 104.825 17.500,105.013 17.350,105.128 17.167 C 105.558 16.477,105.036 16.889,103.567 18.395 M116.607 18.461 C 116.478 18.671,116.312 19.667,116.406 19.667 C 116.509 19.667,116.843 18.454,116.762 18.373 C 116.728 18.339,116.658 18.379,116.607 18.461 M100.941 21.015 C 100.588 21.374,100.367 21.667,100.450 21.667 C 100.641 21.667,101.753 20.530,101.655 20.435 C 101.616 20.396,101.294 20.657,100.941 21.015 M115.519 22.019 C 115.416 22.313,115.361 22.583,115.397 22.619 C 115.432 22.655,115.545 22.443,115.648 22.148 C 115.751 21.854,115.806 21.583,115.770 21.548 C 115.734 21.512,115.621 21.724,115.519 22.019 M99.289 22.667 C 99.132 22.850,99.066 23.000,99.142 23.000 C 99.219 23.000,99.417 22.850,99.583 22.667 C 99.749 22.483,99.815 22.333,99.730 22.333 C 99.644 22.333,99.446 22.483,99.289 22.667 M115.086 23.437 C 114.794 24.135,114.789 24.167,114.966 24.167 C 115.038 24.167,115.178 23.867,115.276 23.500 C 115.497 22.671,115.417 22.644,115.086 23.437 M98.271 23.688 C 97.886 24.137,98.021 24.271,98.417 23.833 C 98.584 23.649,98.685 23.463,98.643 23.421 C 98.600 23.378,98.433 23.498,98.271 23.688 M96.495 25.421 C 95.907 26.015,95.483 26.500,95.552 26.500 C 95.723 26.500,97.720 24.498,97.634 24.411 C 97.596 24.374,97.084 24.828,96.495 25.421 M114.671 24.738 C 114.577 24.986,114.505 25.315,114.512 25.469 C 114.518 25.624,114.631 25.457,114.762 25.098 C 114.894 24.739,114.966 24.410,114.922 24.366 C 114.878 24.323,114.766 24.490,114.671 24.738 M114.085 26.625 C 114.020 26.785,113.935 27.142,113.896 27.417 C 113.801 28.083,114.083 27.615,114.223 26.875 C 114.334 26.283,114.270 26.166,114.085 26.625 M92.356 29.453 C 90.948 30.864,89.833 32.055,89.878 32.100 C 89.923 32.146,90.063 32.069,90.188 31.930 C 90.314 31.792,90.504 31.582,90.610 31.464 C 90.716 31.346,91.313 30.762,91.936 30.167 C 92.560 29.571,93.054 29.027,93.035 28.958 C 93.016 28.890,93.064 28.833,93.141 28.833 C 93.363 28.833,94.000 28.232,94.000 28.022 C 94.000 27.918,94.056 27.831,94.125 27.827 C 94.363 27.816,95.202 27.042,95.060 26.965 C 94.981 26.922,93.765 28.042,92.356 29.453 M113.322 28.875 C 113.112 29.638,113.238 30.015,113.475 29.333 C 113.581 29.030,113.587 28.833,113.491 28.833 C 113.404 28.833,113.328 28.852,113.322 28.875 M113.013 30.264 C 113.006 30.455,112.948 30.663,112.885 30.727 C 112.821 30.790,112.744 31.004,112.714 31.203 C 112.656 31.581,112.825 31.526,112.904 31.140 C 112.929 31.017,113.006 30.788,113.074 30.630 C 113.142 30.473,113.159 30.248,113.112 30.130 C 113.065 30.013,113.020 30.073,113.013 30.264 M166.372 31.878 C 165.526 32.728,164.833 33.483,164.833 33.557 C 164.833 33.631,165.508 33.005,166.333 32.167 C 167.372 31.111,167.837 30.736,167.845 30.946 C 167.856 31.220,167.871 31.217,168.000 30.917 C 168.412 29.957,168.102 30.141,166.372 31.878 M112.455 31.767 C 112.388 31.834,112.333 32.004,112.333 32.144 C 112.333 32.332,112.383 32.351,112.519 32.215 C 112.621 32.113,112.675 31.943,112.640 31.837 C 112.605 31.732,112.522 31.701,112.455 31.767 M88.964 32.816 C 88.623 33.168,88.387 33.498,88.440 33.551 C 88.542 33.653,89.665 32.501,89.666 32.292 C 89.667 32.102,89.631 32.129,88.964 32.816 M86.250 35.536 C 85.242 36.562,84.567 37.293,84.750 37.161 C 85.276 36.783,88.372 33.666,88.220 33.669 C 88.145 33.670,87.258 34.510,86.250 35.536 M111.667 34.249 C 111.667 34.385,111.489 35.041,111.271 35.707 C 110.583 37.813,110.304 38.860,110.404 38.959 C 110.457 39.012,110.500 39.018,110.500 38.972 C 110.500 38.925,110.730 38.144,111.012 37.235 C 111.293 36.327,111.585 35.358,111.659 35.083 C 111.734 34.808,111.849 34.452,111.915 34.292 C 111.987 34.117,111.962 34.000,111.851 34.000 C 111.750 34.000,111.667 34.112,111.667 34.249 M163.542 34.661 C 163.021 35.321,163.074 35.419,163.667 34.890 C 163.942 34.645,164.167 34.382,164.167 34.306 C 164.167 34.043,163.916 34.185,163.542 34.661 M166.563 34.875 C 166.494 35.081,166.421 35.340,166.401 35.451 C 166.381 35.562,166.238 36.035,166.082 36.503 C 165.927 36.972,165.839 37.395,165.888 37.443 C 165.963 37.518,166.152 36.949,166.772 34.792 C 166.895 34.362,166.711 34.436,166.563 34.875 M162.631 35.522 C 162.474 35.686,162.414 35.864,162.498 35.915 C 162.581 35.967,162.735 35.851,162.838 35.657 C 163.082 35.202,162.992 35.143,162.631 35.522 M161.651 36.501 C 161.318 36.852,161.120 37.167,161.232 37.167 C 161.418 37.167,162.174 36.358,162.050 36.291 C 161.977 36.252,161.797 36.346,161.651 36.501 M82.750 39.041 C 81.925 39.886,81.582 40.279,81.987 39.914 C 83.081 38.928,84.487 37.500,84.361 37.502 C 84.300 37.504,83.575 38.196,82.750 39.041 M158.625 39.482 C 158.465 39.645,158.377 39.822,158.431 39.875 C 158.524 39.968,159.167 39.422,159.167 39.250 C 159.167 39.083,158.910 39.193,158.625 39.482 M109.858 40.167 C 109.752 40.470,109.746 40.667,109.842 40.667 C 109.929 40.667,110.006 40.610,110.012 40.542 C 110.019 40.473,110.056 40.248,110.095 40.042 C 110.194 39.509,110.064 39.578,109.858 40.167 M165.003 39.833 C 164.980 39.971,164.971 40.171,164.985 40.279 C 164.998 40.387,164.932 40.522,164.838 40.581 C 164.744 40.639,164.670 40.813,164.673 40.968 C 164.678 41.157,164.764 41.095,164.934 40.782 C 165.073 40.525,165.155 40.150,165.116 39.949 C 165.076 39.741,165.027 39.691,165.003 39.833 M157.167 40.922 C 156.662 41.423,156.339 41.833,156.449 41.833 C 156.558 41.833,156.752 41.684,156.880 41.501 C 157.009 41.318,157.163 41.206,157.223 41.251 C 157.284 41.296,157.297 41.285,157.253 41.225 C 157.170 41.113,157.799 40.500,157.998 40.500 C 158.060 40.500,158.111 40.387,158.111 40.250 C 158.111 40.112,158.105 40.002,158.097 40.005 C 158.090 40.008,157.671 40.420,157.167 40.922 M80.555 41.166 C 80.265 41.426,80.066 41.677,80.113 41.724 C 80.161 41.772,80.422 41.583,80.694 41.305 C 81.334 40.651,81.238 40.555,80.555 41.166 M109.443 41.368 C 109.307 41.886,109.411 41.912,109.636 41.417 C 109.741 41.188,109.762 41.000,109.683 41.000 C 109.604 41.000,109.496 41.165,109.443 41.368 M164.452 41.667 C 164.404 41.850,164.424 42.000,164.496 42.000 C 164.569 42.000,164.667 41.850,164.715 41.667 C 164.763 41.483,164.743 41.333,164.671 41.333 C 164.598 41.333,164.500 41.483,164.452 41.667 M79.439 42.264 C 79.176 42.495,78.994 42.717,79.035 42.757 C 79.075 42.797,79.322 42.606,79.585 42.332 C 80.165 41.726,80.090 41.691,79.439 42.264 M109.107 42.710 C 108.787 43.548,108.767 43.727,109.011 43.576 C 109.109 43.516,109.153 43.431,109.109 43.386 C 109.064 43.342,109.139 43.042,109.274 42.718 C 109.409 42.395,109.488 42.100,109.450 42.062 C 109.413 42.024,109.258 42.315,109.107 42.710 M153.500 44.583 C 152.081 46.004,150.979 47.167,151.051 47.167 C 151.166 47.167,155.447 42.916,155.990 42.262 C 156.586 41.544,155.844 42.236,153.500 44.583 M164.029 43.016 C 163.908 43.208,163.857 43.413,163.914 43.470 C 164.036 43.592,164.327 43.176,164.331 42.875 C 164.334 42.587,164.281 42.612,164.029 43.016 M76.502 45.083 C 75.907 45.666,75.466 46.189,75.523 46.245 C 75.579 46.301,75.814 46.123,76.044 45.850 C 76.274 45.576,76.509 45.398,76.565 45.454 C 76.621 45.510,76.667 45.431,76.667 45.278 C 76.667 45.125,76.730 45.000,76.807 45.000 C 76.990 45.000,77.833 44.276,77.833 44.120 C 77.833 43.856,77.535 44.071,76.502 45.083 M163.513 44.642 C 163.378 44.895,163.385 45.010,163.541 45.100 C 163.656 45.166,163.694 45.159,163.626 45.084 C 163.558 45.009,163.588 44.845,163.692 44.720 C 163.796 44.594,163.839 44.450,163.787 44.398 C 163.736 44.347,163.612 44.457,163.513 44.642 M163.083 46.167 C 162.927 46.637,162.837 47.060,162.884 47.106 C 162.930 47.152,163.084 46.794,163.226 46.310 C 163.368 45.825,163.458 45.402,163.426 45.370 C 163.394 45.338,163.240 45.696,163.083 46.167 M74.750 46.833 C 74.487 47.108,74.326 47.333,74.393 47.333 C 74.512 47.333,75.333 46.511,75.333 46.392 C 75.333 46.261,75.207 46.356,74.750 46.833 M107.918 46.525 C 107.976 46.676,107.943 46.849,107.845 46.910 C 107.747 46.970,107.670 47.146,107.673 47.302 C 107.678 47.488,107.768 47.422,107.938 47.107 C 108.133 46.748,108.149 46.583,108.005 46.440 C 107.861 46.297,107.840 46.319,107.918 46.525 M150.282 47.764 C 150.011 47.998,149.913 48.167,150.048 48.167 C 150.292 48.167,150.938 47.549,150.818 47.430 C 150.781 47.392,150.540 47.543,150.282 47.764 M162.520 47.719 C 162.289 48.299,162.284 48.500,162.500 48.500 C 162.592 48.500,162.655 48.444,162.640 48.375 C 162.626 48.306,162.670 48.121,162.739 47.964 C 162.808 47.806,162.829 47.581,162.786 47.464 C 162.740 47.339,162.628 47.446,162.520 47.719 M73.654 47.940 C 73.432 48.181,73.356 48.346,73.486 48.305 C 73.705 48.237,74.297 47.500,74.133 47.500 C 74.092 47.500,73.876 47.698,73.654 47.940 M149.248 48.835 C 148.986 49.109,148.819 49.333,148.877 49.333 C 149.051 49.333,149.892 48.503,149.806 48.417 C 149.762 48.373,149.511 48.561,149.248 48.835 M71.917 49.701 C 70.585 51.065,70.922 50.897,72.403 49.458 C 72.945 48.931,73.320 48.501,73.236 48.503 C 73.152 48.504,72.558 49.043,71.917 49.701 M162.277 48.792 C 162.100 49.084,161.678 50.722,161.817 50.576 C 161.979 50.407,162.527 48.667,162.418 48.667 C 162.382 48.667,162.319 48.723,162.277 48.792 M107.077 49.176 C 107.018 49.273,106.943 49.517,106.913 49.718 C 106.882 49.919,106.810 50.271,106.753 50.500 C 106.685 50.770,106.740 50.717,106.910 50.350 C 107.054 50.038,107.136 49.747,107.092 49.703 C 107.048 49.659,107.087 49.483,107.178 49.311 C 107.353 48.986,107.267 48.870,107.077 49.176 M144.842 53.096 C 143.428 54.510,142.352 55.667,142.451 55.667 C 142.551 55.667,143.042 55.217,143.544 54.667 C 144.045 54.117,144.540 53.667,144.644 53.667 C 144.748 53.667,144.833 53.590,144.833 53.497 C 144.833 53.306,146.325 51.833,146.519 51.833 C 146.588 51.833,146.692 51.682,146.751 51.498 C 146.809 51.313,146.923 51.203,147.004 51.252 C 147.143 51.338,147.588 50.699,147.471 50.582 C 147.440 50.551,146.257 51.682,144.842 53.096 M161.268 51.875 C 161.112 52.448,160.981 52.992,160.976 53.083 C 160.971 53.175,160.894 53.386,160.805 53.552 C 160.595 53.945,160.468 54.605,160.641 54.404 C 160.714 54.319,160.911 53.800,161.078 53.250 C 161.245 52.700,161.483 51.967,161.607 51.622 C 161.873 50.883,161.878 50.833,161.691 50.833 C 161.613 50.833,161.423 51.302,161.268 51.875 M106.479 51.083 C 106.468 51.129,106.440 51.242,106.417 51.333 C 106.394 51.425,106.360 51.519,106.342 51.542 C 106.324 51.565,106.278 51.771,106.240 52.000 C 106.188 52.316,106.208 52.354,106.327 52.156 C 106.501 51.863,106.684 51.000,106.572 51.000 C 106.533 51.000,106.491 51.038,106.479 51.083 M105.845 53.142 C 105.735 53.541,105.680 53.902,105.722 53.945 C 105.842 54.064,106.204 52.859,106.119 52.624 C 106.079 52.510,105.955 52.743,105.845 53.142 M67.875 53.685 C 67.394 54.151,67.000 54.604,67.000 54.693 C 67.000 54.781,66.913 54.799,66.808 54.734 C 66.688 54.660,66.660 54.688,66.734 54.808 C 66.799 54.913,66.761 55.000,66.649 55.000 C 66.536 55.000,66.498 55.053,66.563 55.118 C 66.660 55.216,68.833 53.086,68.833 52.893 C 68.833 52.771,68.731 52.856,67.875 53.685 M105.519 54.292 C 105.509 54.406,105.502 54.538,105.503 54.585 C 105.505 54.632,105.387 54.901,105.241 55.184 C 105.095 55.466,105.017 55.740,105.069 55.791 C 105.214 55.936,105.694 54.669,105.612 54.359 C 105.572 54.207,105.530 54.177,105.519 54.292 M160.044 55.917 C 159.945 56.238,159.927 56.500,160.002 56.500 C 160.151 56.500,160.411 55.522,160.294 55.405 C 160.255 55.366,160.142 55.596,160.044 55.917 M63.958 57.470 C 62.881 58.552,62.000 59.495,62.000 59.564 C 62.000 59.633,62.485 59.196,63.078 58.595 C 63.672 57.993,64.247 57.500,64.356 57.500 C 64.466 57.500,64.516 57.460,64.467 57.412 C 64.370 57.314,65.609 56.031,66.103 55.718 C 66.341 55.567,66.356 55.517,66.167 55.511 C 66.029 55.506,65.035 56.388,63.958 57.470 M141.676 56.255 C 141.451 56.476,141.301 56.690,141.342 56.731 C 141.383 56.772,141.635 56.587,141.903 56.319 C 142.170 56.052,142.320 55.838,142.236 55.843 C 142.152 55.849,141.900 56.034,141.676 56.255 M104.626 56.917 C 104.582 57.146,104.611 57.333,104.690 57.333 C 104.769 57.333,104.833 57.264,104.833 57.180 C 104.833 57.096,104.879 56.909,104.934 56.764 C 104.990 56.619,104.961 56.500,104.871 56.500 C 104.780 56.500,104.670 56.688,104.626 56.917 M159.691 56.958 C 159.475 57.367,158.978 59.367,159.069 59.458 C 159.111 59.500,159.227 59.207,159.328 58.808 C 159.429 58.410,159.612 57.765,159.733 57.375 C 159.966 56.630,159.949 56.469,159.691 56.958 M139.240 58.695 L 138.750 59.223 139.292 58.850 C 139.590 58.645,139.833 58.407,139.833 58.322 C 139.833 58.084,139.767 58.125,139.240 58.695 M103.889 59.595 C 103.784 59.818,103.761 60.000,103.838 60.000 C 103.983 60.000,104.242 59.353,104.138 59.250 C 104.106 59.217,103.994 59.373,103.889 59.595 M137.782 60.135 C 137.352 60.571,137.000 60.995,137.000 61.076 C 137.000 61.157,137.386 60.834,137.857 60.357 C 138.328 59.881,138.680 59.458,138.638 59.416 C 138.597 59.375,138.212 59.698,137.782 60.135 M61.249 60.168 C 61.083 60.352,60.983 60.539,61.028 60.583 C 61.072 60.628,61.271 60.477,61.470 60.249 C 61.897 59.757,61.690 59.681,61.249 60.168 M158.774 59.962 C 158.722 60.045,158.608 60.434,158.520 60.826 C 158.324 61.700,158.566 61.506,158.813 60.593 C 158.985 59.958,158.966 59.651,158.774 59.962 M103.533 60.577 C 103.391 60.889,103.395 61.016,103.548 61.104 C 103.659 61.168,103.696 61.161,103.631 61.088 C 103.565 61.016,103.590 60.810,103.686 60.630 C 103.782 60.451,103.829 60.273,103.791 60.235 C 103.752 60.197,103.636 60.350,103.533 60.577 M59.913 61.504 C 59.464 61.960,59.146 62.333,59.208 62.333 C 59.378 62.333,60.888 60.832,60.803 60.748 C 60.763 60.707,60.362 61.048,59.913 61.504 M183.106 61.106 C 182.549 61.707,182.694 61.852,183.273 61.273 C 183.517 61.028,183.676 60.787,183.625 60.737 C 183.575 60.686,183.341 60.852,183.106 61.106 M136.525 61.277 C 136.258 61.567,136.333 61.706,136.650 61.510 C 136.773 61.434,136.846 61.296,136.812 61.202 C 136.776 61.104,136.655 61.136,136.525 61.277 M103.219 61.625 C 103.162 61.785,103.084 61.992,103.045 62.083 C 103.007 62.175,103.093 62.104,103.238 61.926 C 103.500 61.603,103.579 61.333,103.411 61.333 C 103.363 61.333,103.276 61.465,103.219 61.625 M158.222 61.875 C 158.065 62.127,157.937 62.952,158.078 62.811 C 158.200 62.689,158.501 61.667,158.415 61.667 C 158.381 61.667,158.294 61.760,158.222 61.875 M135.023 62.752 C 134.531 63.255,134.198 63.667,134.282 63.667 C 134.472 63.667,135.667 62.585,135.667 62.413 C 135.667 62.343,135.798 62.187,135.958 62.065 C 136.119 61.944,136.175 61.843,136.083 61.841 C 135.992 61.839,135.514 62.250,135.023 62.752 M58.201 63.215 C 57.816 63.608,57.500 63.983,57.500 64.049 C 57.500 64.115,57.837 63.826,58.250 63.408 C 58.925 62.723,59.097 62.500,58.951 62.500 C 58.925 62.500,58.587 62.822,58.201 63.215 M179.956 64.126 C 179.614 64.477,179.333 64.823,179.333 64.895 C 179.333 64.967,179.558 64.801,179.832 64.527 C 180.106 64.253,180.417 64.000,180.523 63.964 C 180.630 63.929,180.686 63.807,180.648 63.694 C 180.606 63.569,180.335 63.738,179.956 64.126 M157.323 64.542 C 157.208 65.023,157.119 65.454,157.126 65.500 C 157.133 65.546,157.080 65.658,157.009 65.750 C 156.808 66.009,156.392 67.830,156.576 67.646 C 156.629 67.594,156.864 66.883,157.098 66.067 C 157.333 65.251,157.568 64.471,157.621 64.333 C 157.791 63.891,157.807 63.667,157.669 63.667 C 157.594 63.667,157.439 64.060,157.323 64.542 M133.333 64.456 C 132.953 64.834,132.948 64.853,133.282 64.684 C 133.645 64.500,133.920 64.191,133.808 64.094 C 133.776 64.066,133.563 64.229,133.333 64.456 M56.100 65.267 C 55.467 65.899,55.300 66.197,55.792 65.814 C 56.172 65.518,56.833 64.837,56.833 64.741 C 56.833 64.578,56.675 64.692,56.100 65.267 M132.083 65.667 C 131.725 66.033,131.485 66.333,131.550 66.333 C 131.614 66.333,131.967 66.033,132.333 65.667 C 132.700 65.300,132.940 65.000,132.867 65.000 C 132.794 65.000,132.441 65.300,132.083 65.667 M178.167 65.917 C 177.951 66.146,177.855 66.333,177.952 66.333 C 178.049 66.333,178.251 66.146,178.401 65.917 C 178.551 65.688,178.648 65.500,178.616 65.500 C 178.584 65.500,178.382 65.688,178.167 65.917 M54.958 66.347 C 54.798 66.523,54.667 66.742,54.667 66.833 C 54.667 66.925,54.607 66.981,54.534 66.958 C 54.389 66.913,52.167 69.054,52.167 69.239 C 52.167 69.301,52.513 69.029,52.937 68.634 C 54.572 67.112,55.333 66.329,55.333 66.167 C 55.333 65.952,55.308 65.964,54.958 66.347 M129.833 67.959 C 128.303 69.523,128.739 69.241,130.477 67.542 C 131.064 66.969,131.477 66.502,131.397 66.505 C 131.316 66.508,130.612 67.162,129.833 67.959 M101.444 67.111 C 101.383 67.172,101.333 67.410,101.333 67.639 C 101.333 68.162,101.510 68.010,101.573 67.431 C 101.624 66.967,101.614 66.941,101.444 67.111 M175.930 68.000 C 175.398 68.550,175.033 69.000,175.118 69.000 C 175.203 69.000,175.426 68.831,175.613 68.625 C 175.800 68.419,176.170 68.061,176.435 67.829 C 176.839 67.476,177.134 67.000,176.949 67.000 C 176.921 67.000,176.462 67.450,175.930 68.000 M174.178 69.752 C 173.863 70.069,173.638 70.360,173.678 70.399 C 173.717 70.438,174.048 70.177,174.412 69.818 C 174.776 69.460,175.001 69.169,174.912 69.172 C 174.823 69.175,174.492 69.436,174.178 69.752 M50.248 71.043 C 49.332 71.971,48.921 72.456,49.333 72.120 C 50.198 71.417,52.063 69.508,51.973 69.418 C 51.940 69.384,51.163 70.116,50.248 71.043 M127.493 70.283 C 127.084 70.714,126.897 70.958,127.076 70.825 C 127.454 70.545,127.821 70.188,128.145 69.784 C 128.589 69.233,128.227 69.509,127.493 70.283 M100.531 70.249 C 100.426 70.479,100.405 70.667,100.484 70.667 C 100.623 70.667,100.872 69.983,100.770 69.882 C 100.743 69.854,100.635 70.020,100.531 70.249 M155.616 70.066 C 155.548 70.239,155.531 70.420,155.579 70.468 C 155.731 70.620,155.865 70.371,155.801 70.055 C 155.743 69.765,155.734 69.765,155.616 70.066 M172.987 70.939 C 172.602 71.357,172.601 71.367,172.955 71.150 C 173.160 71.026,173.363 70.828,173.408 70.712 C 173.528 70.401,173.439 70.449,172.987 70.939 M155.184 71.496 C 155.067 71.953,154.971 72.384,154.971 72.455 C 154.972 72.525,154.894 72.677,154.799 72.792 C 154.678 72.937,154.682 73.000,154.810 73.000 C 154.911 73.000,155.039 72.794,155.094 72.542 C 155.202 72.048,155.394 71.426,155.584 70.958 C 155.649 70.798,155.633 70.667,155.549 70.667 C 155.465 70.667,155.301 71.040,155.184 71.496 M124.946 72.768 C 124.048 73.648,123.350 74.405,123.394 74.450 C 123.469 74.525,126.667 71.384,126.667 71.234 C 126.667 71.092,126.534 71.210,124.946 72.768 M99.929 72.262 C 99.867 72.506,99.855 72.743,99.900 72.789 C 99.946 72.835,100.034 72.673,100.095 72.429 C 100.157 72.184,100.169 71.947,100.123 71.901 C 100.078 71.855,99.990 72.018,99.929 72.262 M170.958 72.832 C 170.294 73.516,170.216 73.667,170.528 73.667 C 170.635 73.667,170.675 73.619,170.616 73.561 C 170.558 73.503,170.752 73.257,171.047 73.016 C 171.342 72.774,171.602 72.484,171.625 72.372 C 171.682 72.092,171.668 72.101,170.958 72.832 M154.608 73.293 C 154.485 73.493,154.278 74.760,154.385 74.662 C 154.438 74.613,154.553 74.257,154.640 73.870 C 154.790 73.201,154.780 73.015,154.608 73.293 M99.487 73.542 C 99.382 73.887,99.394 74.167,99.515 74.167 C 99.598 74.167,99.667 74.017,99.667 73.833 C 99.667 73.565,99.542 73.363,99.487 73.542 M168.667 75.083 C 167.984 75.771,167.487 76.333,167.563 76.333 C 167.638 76.333,168.265 75.771,168.954 75.083 C 169.644 74.396,170.141 73.833,170.058 73.833 C 169.976 73.833,169.350 74.396,168.667 75.083 M99.058 75.000 C 98.960 75.367,98.929 75.667,98.989 75.667 C 99.049 75.667,99.178 75.367,99.276 75.000 C 99.374 74.633,99.405 74.333,99.345 74.333 C 99.285 74.333,99.155 74.633,99.058 75.000 M121.750 75.868 C 121.108 76.520,120.746 76.968,120.944 76.862 C 121.142 76.757,121.330 76.613,121.360 76.544 C 121.391 76.474,121.843 76.023,122.365 75.542 C 122.887 75.060,123.224 74.670,123.115 74.674 C 123.006 74.678,122.392 75.215,121.750 75.868 M44.187 76.965 C 43.053 78.092,42.160 79.049,42.203 79.092 C 42.292 79.181,43.037 78.523,43.265 78.153 C 43.349 78.018,43.735 77.660,44.125 77.357 C 44.515 77.053,44.833 76.699,44.833 76.569 C 44.833 76.440,44.900 76.333,44.982 76.333 C 45.225 76.333,46.385 75.234,46.315 75.069 C 46.279 74.985,45.322 75.838,44.187 76.965 M154.039 75.167 C 153.926 75.347,153.905 75.525,153.991 75.578 C 154.075 75.629,154.192 75.515,154.253 75.323 C 154.401 74.857,154.285 74.772,154.039 75.167 M98.740 76.101 C 98.685 76.275,98.571 76.589,98.486 76.800 C 98.297 77.274,98.296 77.333,98.480 77.333 C 98.635 77.333,99.032 75.977,98.912 75.857 C 98.873 75.818,98.796 75.928,98.740 76.101 M153.542 76.785 C 153.427 77.032,153.333 77.381,153.333 77.561 C 153.333 77.960,153.447 77.874,153.526 77.417 C 153.557 77.233,153.647 77.037,153.725 76.980 C 153.803 76.923,153.840 76.755,153.808 76.607 C 153.766 76.410,153.694 76.458,153.542 76.785 M166.208 77.509 C 165.235 78.450,165.054 78.667,165.242 78.667 C 165.284 78.667,165.815 78.179,166.423 77.583 C 167.031 76.987,167.465 76.501,167.389 76.501 C 167.312 76.502,166.781 76.956,166.208 77.509 M118.757 78.822 C 118.643 79.006,118.906 79.205,119.060 79.051 C 119.219 78.893,119.189 78.667,119.010 78.667 C 118.924 78.667,118.810 78.736,118.757 78.822 M163.250 80.333 C 162.613 80.975,162.147 81.500,162.215 81.500 C 162.282 81.500,162.805 81.033,163.377 80.463 C 163.949 79.892,164.473 79.442,164.542 79.463 C 164.610 79.483,164.667 79.425,164.667 79.333 C 164.667 78.993,164.379 79.196,163.250 80.333 M41.151 79.988 C 40.769 80.410,40.626 80.668,40.782 80.657 C 40.856 80.652,41.091 80.427,41.304 80.157 C 41.719 79.633,41.595 79.497,41.151 79.988 M117.500 80.083 C 117.285 80.312,117.147 80.536,117.193 80.582 C 117.239 80.628,117.452 80.478,117.667 80.250 C 117.881 80.022,118.019 79.797,117.974 79.751 C 117.928 79.705,117.715 79.855,117.500 80.083 M152.546 80.004 C 152.532 80.189,152.591 80.297,152.677 80.244 C 152.866 80.127,152.886 79.667,152.702 79.667 C 152.630 79.667,152.560 79.818,152.546 80.004 M97.193 81.091 C 96.963 81.598,96.935 81.971,97.145 81.742 C 97.296 81.577,97.551 80.667,97.447 80.667 C 97.414 80.667,97.300 80.858,97.193 81.091 M115.946 81.678 C 115.595 82.038,115.381 82.333,115.470 82.333 C 115.625 82.333,116.667 81.239,116.667 81.078 C 116.667 80.948,116.607 80.998,115.946 81.678 M161.731 81.892 C 161.629 81.997,160.633 82.937,159.517 83.980 C 158.401 85.023,157.527 85.916,157.574 85.963 C 157.621 86.010,157.980 85.739,158.372 85.360 C 158.763 84.981,159.753 84.034,160.572 83.255 C 161.391 82.476,162.029 81.808,161.989 81.770 C 161.949 81.731,161.833 81.786,161.731 81.892 M96.828 82.343 C 96.728 82.531,96.670 82.759,96.700 82.850 C 96.730 82.940,96.841 82.786,96.946 82.507 C 97.165 81.927,97.100 81.836,96.828 82.343 M151.710 82.750 C 151.612 83.071,151.590 83.333,151.661 83.333 C 151.793 83.333,152.050 82.328,151.946 82.224 C 151.915 82.192,151.809 82.429,151.710 82.750 M114.542 83.009 C 113.971 83.544,113.796 83.869,114.289 83.479 C 114.823 83.055,115.350 82.500,115.216 82.501 C 115.143 82.501,114.840 82.730,114.542 83.009 M37.981 83.185 L 37.417 83.704 37.953 83.344 C 38.248 83.146,38.534 82.913,38.588 82.826 C 38.769 82.532,38.550 82.663,37.981 83.185 M96.276 84.034 C 96.141 84.552,96.244 84.579,96.469 84.084 C 96.574 83.854,96.595 83.667,96.516 83.667 C 96.437 83.667,96.329 83.832,96.276 84.034 M35.661 85.422 C 34.797 86.290,34.138 87.000,34.197 87.000 C 34.367 87.000,37.393 84.004,37.309 83.920 C 37.267 83.878,36.526 84.554,35.661 85.422 M151.046 84.837 C 151.032 85.022,151.091 85.130,151.177 85.077 C 151.366 84.960,151.386 84.500,151.202 84.500 C 151.130 84.500,151.060 84.652,151.046 84.837 M96.000 85.000 C 95.902 85.183,95.877 85.333,95.944 85.333 C 96.012 85.333,95.977 85.423,95.867 85.533 C 95.757 85.643,95.669 85.850,95.672 85.992 C 95.678 86.325,95.988 85.826,96.084 85.329 C 96.119 85.147,96.194 84.924,96.250 84.833 C 96.307 84.741,96.314 84.667,96.266 84.667 C 96.218 84.667,96.098 84.817,96.000 85.000 M111.906 85.688 C 111.563 86.052,111.522 86.145,111.767 85.996 C 112.070 85.813,112.601 85.167,112.449 85.167 C 112.420 85.167,112.175 85.401,111.906 85.688 M156.417 87.000 C 155.965 87.458,155.655 87.833,155.728 87.833 C 155.801 87.833,156.238 87.458,156.698 87.000 C 157.159 86.542,157.469 86.167,157.387 86.167 C 157.305 86.167,156.868 86.542,156.417 87.000 M95.399 86.917 C 95.299 87.237,95.268 87.500,95.330 87.500 C 95.393 87.500,95.525 87.237,95.623 86.917 C 95.722 86.596,95.753 86.333,95.692 86.333 C 95.631 86.333,95.499 86.596,95.399 86.917 M110.197 87.286 C 109.470 88.050,109.594 88.139,110.380 87.418 C 110.720 87.107,110.942 86.819,110.874 86.779 C 110.806 86.738,110.501 86.967,110.197 87.286 M33.117 87.928 C 32.681 88.334,32.389 88.667,32.468 88.667 C 32.646 88.667,34.059 87.337,33.973 87.251 C 33.939 87.216,33.554 87.521,33.117 87.928 M150.116 87.732 C 150.048 87.906,150.031 88.087,150.079 88.135 C 150.231 88.287,150.365 88.038,150.301 87.721 C 150.243 87.431,150.234 87.432,150.116 87.732 M108.859 88.598 C 108.282 89.212,108.231 89.603,108.800 89.058 C 109.088 88.782,109.583 87.995,109.464 88.003 C 109.438 88.005,109.166 88.273,108.859 88.598 M94.723 89.005 C 94.626 89.369,94.603 89.667,94.671 89.667 C 94.802 89.667,95.067 88.511,94.960 88.405 C 94.927 88.371,94.820 88.641,94.723 89.005 M149.955 88.447 C 149.654 88.971,149.201 90.964,149.492 90.486 C 149.580 90.341,149.696 89.974,149.749 89.672 C 149.803 89.369,149.924 88.975,150.020 88.796 C 150.184 88.490,150.122 88.157,149.955 88.447 M154.525 88.767 C 154.221 89.111,154.417 89.274,154.742 88.948 C 154.884 88.807,155.000 88.648,155.000 88.595 C 155.000 88.420,154.752 88.510,154.525 88.767 M31.772 89.264 C 31.510 89.495,31.328 89.717,31.369 89.757 C 31.409 89.798,31.694 89.607,32.001 89.332 C 32.309 89.058,32.490 88.836,32.405 88.839 C 32.320 88.841,32.035 89.033,31.772 89.264 M153.674 89.656 C 153.405 90.034,153.379 90.139,153.573 90.064 C 153.716 90.009,153.833 89.866,153.833 89.746 C 153.833 89.626,153.927 89.494,154.042 89.453 C 154.156 89.412,154.202 89.327,154.143 89.263 C 154.084 89.200,153.873 89.376,153.674 89.656 M107.026 90.389 C 106.746 90.687,106.720 90.778,106.914 90.778 C 107.053 90.778,107.167 90.678,107.167 90.556 C 107.167 90.433,107.279 90.333,107.417 90.333 C 107.554 90.333,107.667 90.258,107.667 90.167 C 107.667 89.890,107.412 89.978,107.026 90.389 M152.417 90.833 C 152.062 91.197,151.807 91.529,151.851 91.573 C 151.894 91.617,152.219 91.354,152.573 90.990 C 152.927 90.625,153.181 90.292,153.139 90.250 C 153.096 90.207,152.771 90.470,152.417 90.833 M30.125 90.847 C 29.965 91.023,29.890 91.164,29.958 91.161 C 30.133 91.154,30.667 90.736,30.667 90.607 C 30.667 90.414,30.422 90.522,30.125 90.847 M94.099 91.092 C 93.830 91.770,93.830 92.293,94.099 91.690 C 94.237 91.382,94.322 91.049,94.288 90.949 C 94.255 90.849,94.170 90.913,94.099 91.092 M106.001 91.416 C 105.786 91.645,105.648 91.870,105.694 91.916 C 105.740 91.962,105.979 91.775,106.224 91.500 C 106.759 90.899,106.558 90.823,106.001 91.416 M151.048 92.226 C 150.753 92.514,150.137 93.087,149.680 93.500 C 149.222 93.912,148.805 94.354,148.753 94.482 C 148.628 94.790,148.918 94.550,150.152 93.326 C 150.664 92.818,151.258 92.282,151.471 92.135 C 151.684 91.988,151.796 91.831,151.721 91.785 C 151.645 91.739,151.342 91.938,151.048 92.226 M102.426 95.000 C 100.786 96.650,99.486 98.000,99.537 98.000 C 99.651 98.000,105.500 92.193,105.500 92.080 C 105.500 91.916,105.345 92.064,102.426 95.000 M148.671 92.404 C 148.463 92.953,148.461 93.000,148.647 93.000 C 148.796 93.000,149.024 92.138,148.907 92.019 C 148.871 91.983,148.766 92.157,148.671 92.404 M26.333 94.634 C 24.512 96.478,24.803 96.286,26.971 94.213 C 27.664 93.550,28.198 92.976,28.157 92.936 C 28.116 92.896,27.296 93.660,26.333 94.634 M93.196 93.988 C 93.099 94.265,93.082 94.531,93.158 94.578 C 93.234 94.625,93.333 94.420,93.378 94.123 C 93.486 93.415,93.414 93.361,93.196 93.988 M147.990 94.750 C 147.981 94.842,147.950 95.043,147.920 95.197 C 147.886 95.373,147.948 95.446,148.087 95.392 C 148.333 95.298,148.556 94.834,148.421 94.698 C 148.373 94.650,148.332 94.717,148.331 94.847 C 148.329 95.042,148.300 95.039,148.167 94.833 C 148.078 94.696,147.998 94.658,147.990 94.750 M92.695 95.658 C 92.597 95.938,92.580 96.167,92.656 96.167 C 92.788 96.167,93.024 95.305,92.921 95.200 C 92.894 95.172,92.792 95.378,92.695 95.658 M22.786 98.168 C 22.073 98.901,21.548 99.499,21.619 99.498 C 21.691 99.497,22.343 98.897,23.068 98.165 C 23.793 97.433,24.318 96.834,24.235 96.835 C 24.151 96.836,23.500 97.436,22.786 98.168 M98.667 98.750 C 98.356 99.071,98.172 99.328,98.259 99.321 C 98.409 99.310,99.439 98.167,99.299 98.167 C 99.262 98.167,98.978 98.429,98.667 98.750 M91.609 99.061 C 91.540 99.324,91.523 99.579,91.571 99.627 C 91.705 99.761,91.870 99.224,91.798 98.885 C 91.751 98.663,91.702 98.709,91.609 99.061 M20.503 100.413 C 20.100 100.824,19.804 101.182,19.844 101.210 C 19.884 101.238,20.281 100.902,20.726 100.463 C 21.171 100.025,21.467 99.667,21.385 99.667 C 21.303 99.667,20.906 100.003,20.503 100.413 M91.033 100.910 C 90.930 101.136,90.909 101.361,90.987 101.409 C 91.065 101.457,91.168 101.291,91.216 101.040 C 91.331 100.445,91.266 100.399,91.033 100.910 M96.125 101.181 C 95.965 101.356,95.890 101.498,95.958 101.495 C 96.133 101.487,96.667 101.069,96.667 100.940 C 96.667 100.747,96.422 100.856,96.125 101.181 M19.082 101.835 C 18.819 102.109,18.675 102.332,18.760 102.330 C 18.961 102.327,19.736 101.514,19.635 101.413 C 19.593 101.371,19.344 101.561,19.082 101.835 M95.128 102.162 C 94.711 102.540,94.652 102.658,94.875 102.662 C 95.035 102.664,95.167 102.550,95.167 102.407 C 95.167 102.264,95.228 102.185,95.304 102.232 C 95.379 102.278,95.566 102.170,95.719 101.991 C 96.149 101.489,95.736 101.608,95.128 102.162 M90.611 102.351 C 90.576 102.479,90.458 102.861,90.349 103.201 C 90.240 103.541,90.119 103.953,90.082 104.118 C 90.044 104.282,89.970 104.604,89.916 104.833 C 89.798 105.344,90.181 104.401,90.579 103.200 C 90.741 102.714,90.828 102.273,90.774 102.218 C 90.719 102.164,90.646 102.223,90.611 102.351 M17.833 103.000 C 17.727 103.199,17.677 103.399,17.723 103.445 C 17.769 103.491,17.893 103.366,18.000 103.167 C 18.107 102.968,18.156 102.767,18.110 102.721 C 18.065 102.676,17.940 102.801,17.833 103.000 M93.769 103.511 C 93.413 103.878,93.151 104.206,93.186 104.241 C 93.293 104.347,93.938 103.760,94.151 103.363 C 94.260 103.158,94.421 103.035,94.508 103.089 C 94.595 103.142,94.667 103.107,94.667 103.010 C 94.667 102.698,94.432 102.829,93.769 103.511 M15.930 104.835 C 15.113 105.659,14.494 106.383,14.555 106.444 C 14.617 106.505,14.667 106.464,14.667 106.351 C 14.667 106.239,14.735 106.189,14.819 106.241 C 14.903 106.293,15.134 106.072,15.333 105.751 C 15.531 105.430,15.752 105.167,15.823 105.167 C 16.014 105.167,17.500 103.688,17.500 103.498 C 17.500 103.250,17.520 103.232,15.930 104.835 M92.443 104.804 C 92.291 104.973,92.216 105.160,92.276 105.221 C 92.337 105.282,92.495 105.177,92.627 104.988 C 92.939 104.543,92.802 104.407,92.443 104.804 M89.387 106.261 C 89.191 106.759,89.084 107.167,89.149 107.167 C 89.284 107.167,89.906 105.518,89.808 105.419 C 89.773 105.384,89.583 105.763,89.387 106.261 M91.321 105.939 C 90.949 106.343,90.945 106.364,91.272 106.194 C 91.468 106.092,91.671 105.895,91.725 105.755 C 91.862 105.399,91.785 105.434,91.321 105.939 M89.836 107.496 C 89.336 108.103,88.968 108.275,89.035 107.872 C 89.062 107.713,89.158 107.521,89.250 107.446 C 89.350 107.363,89.320 107.334,89.174 107.374 C 89.030 107.413,88.905 107.701,88.868 108.080 L 88.806 108.720 89.415 108.152 C 89.942 107.660,90.447 107.000,90.296 107.000 C 90.269 107.000,90.062 107.223,89.836 107.496 M11.199 109.550 C 10.540 110.215,10.000 110.808,10.000 110.870 C 10.000 110.932,10.570 110.419,11.266 109.729 C 11.962 109.040,12.501 108.446,12.465 108.409 C 12.428 108.373,11.859 108.886,11.199 109.550 M8.826 111.950 C 8.418 112.381,8.233 112.625,8.417 112.492 C 8.784 112.225,9.667 111.336,9.667 111.232 C 9.667 111.089,9.541 111.196,8.826 111.950 M7.499 113.223 C 7.269 113.421,6.931 113.770,6.749 113.997 C 6.350 114.495,6.677 114.285,7.576 113.466 C 8.168 112.927,8.098 112.707,7.499 113.223 M4.792 115.812 C 4.081 116.522,3.500 117.170,3.500 117.251 C 3.500 117.333,3.914 116.972,4.420 116.450 C 4.926 115.927,5.380 115.500,5.428 115.500 C 5.522 115.500,6.333 114.657,6.333 114.559 C 6.333 114.348,5.926 114.679,4.792 115.812 M2.115 118.467 C 1.868 118.725,1.667 119.004,1.667 119.088 C 1.667 119.172,1.892 118.995,2.167 118.694 C 2.627 118.190,2.749 118.000,2.615 118.000 C 2.586 118.000,2.361 118.210,2.115 118.467 M0.698 119.885 C -0.249 120.850,-0.190 120.992,0.774 120.069 C 1.200 119.660,1.514 119.292,1.472 119.250 C 1.430 119.208,1.082 119.494,0.698 119.885 M74.909 122.083 C 74.401 122.587,74.053 123.000,74.137 123.000 C 74.335 123.000,75.167 122.166,75.167 121.967 C 75.167 121.883,75.223 121.842,75.292 121.876 C 75.360 121.910,75.583 121.765,75.786 121.552 C 76.559 120.744,75.789 121.210,74.909 122.083 M72.853 124.106 C 72.360 124.604,71.986 125.042,72.023 125.079 C 72.060 125.115,72.496 124.739,72.992 124.242 C 73.489 123.746,73.862 123.308,73.822 123.270 C 73.783 123.232,73.346 123.608,72.853 124.106 M69.773 127.160 C 69.348 127.614,69.000 128.042,69.000 128.112 C 69.000 128.181,69.375 127.838,69.833 127.350 C 70.292 126.862,70.667 126.433,70.667 126.398 C 70.667 126.241,70.497 126.385,69.773 127.160 M67.457 129.458 C 67.220 129.710,66.576 130.348,66.026 130.875 C 65.477 131.402,65.095 131.833,65.178 131.833 C 65.383 131.833,68.071 129.183,67.970 129.081 C 67.925 129.036,67.695 129.206,67.457 129.458 M64.576 132.178 C 64.516 132.276,64.507 132.396,64.556 132.444 C 64.675 132.564,65.000 132.353,65.000 132.157 C 65.000 131.944,64.712 131.958,64.576 132.178 M63.595 133.250 C 63.234 133.571,63.018 133.833,63.113 133.833 C 63.209 133.833,63.565 133.571,63.905 133.250 C 64.710 132.491,64.448 132.491,63.595 133.250 M61.873 134.923 C 61.391 135.424,61.092 135.833,61.209 135.833 C 61.325 135.833,61.570 135.634,61.752 135.390 C 61.934 135.146,62.295 134.733,62.554 134.473 C 62.814 134.213,62.964 134.003,62.888 134.007 C 62.812 134.010,62.355 134.423,61.873 134.923 M60.208 136.565 C 59.650 137.117,59.544 137.333,59.833 137.333 C 59.925 137.333,60.000 137.221,60.000 137.083 C 60.000 136.946,60.094 136.833,60.210 136.833 C 60.409 136.833,60.916 136.192,60.803 136.082 C 60.774 136.053,60.506 136.271,60.208 136.565 M58.500 138.265 C 57.996 138.759,57.642 139.164,57.713 139.165 C 57.887 139.167,59.574 137.518,59.486 137.433 C 59.448 137.396,59.004 137.771,58.500 138.265 M56.948 139.801 C 56.702 140.058,56.500 140.326,56.500 140.396 C 56.500 140.525,56.652 140.382,57.234 139.703 C 57.688 139.175,57.480 139.246,56.948 139.801 M55.200 141.563 C 54.632 142.135,54.167 142.655,54.167 142.717 C 54.167 142.779,54.600 142.392,55.129 141.858 C 55.659 141.323,56.199 140.850,56.329 140.807 C 56.469 140.760,56.498 140.685,56.400 140.625 C 56.308 140.568,55.768 140.990,55.200 141.563 M53.417 143.333 C 53.153 143.608,53.015 143.833,53.110 143.833 C 53.281 143.833,53.675 143.439,53.901 143.042 C 54.096 142.700,53.925 142.803,53.417 143.333 M47.788 148.803 C 46.621 149.965,45.666 150.954,45.666 151.000 C 45.666 151.046,76.713 151.083,114.658 151.083 C 152.604 151.083,183.594 151.027,183.525 150.959 C 183.457 150.890,152.504 150.815,114.742 150.792 L 46.083 150.750 47.402 149.458 C 48.127 148.748,48.771 148.167,48.832 148.167 C 48.978 148.167,50.053 146.830,49.972 146.750 C 49.938 146.716,48.956 147.640,47.788 148.803 " stroke="none" fill="#b4acac" fill-rule="evenodd"></path><path id="path4" d="M19.125 120.792 C 29.598 120.815,46.735 120.815,57.208 120.792 C 67.681 120.768,59.112 120.749,38.167 120.749 C 17.221 120.749,8.652 120.768,19.125 120.792 " stroke="none" fill="#b8b48c" fill-rule="evenodd"></path></g></svg>