<svg xmlns="http://www.w3.org/2000/svg" width="24" height="24" viewBox="0 0 24 24">
<g id="evaTrendingUpFill0"><g id="evaTrendingUpFill1">
<path opacity="0.4" d="M2.28099 19.6575C2.36966 20.5161 2.93261 21.1957 3.77688 21.3755C5.1095 21.6592 7.6216 22 12 22C16.3784 22 18.8905 21.6592 20.2232 21.3755C21.0674 21.1957 21.6303 20.5161 21.719 19.6575C21.8505 18.3844 22 16.0469 22 12C22 7.95305 21.8505 5.6156 21.719 4.34251C21.6303 3.48389 21.0674 2.80424 20.2231 2.62451C18.8905 2.34081 16.3784 2 12 2C7.6216 2 5.1095 2.34081 3.77688 2.62451C2.93261 2.80424 2.36966 3.48389 2.28099 4.34251C2.14952 5.6156 2 7.95305 2 12C2 16.0469 2.14952 18.3844 2.28099 19.6575Z" fill="#637381"/>
<path id="evaTrendingUpFill2" fill="currentColor" d="M21 7a.78.78 0 0 0 0-.21a.64.64 0 0 0-.05-.17a1.1 1.1 0 0 0-.09-.14a.75.75 0 0 0-.14-.17l-.12-.07a.69.69 0 0 0-.19-.1h-.2A.7.7 0 0 0 20 6h-5a1 1 0 0 0 0 2h2.83l-4 4.71l-4.32-2.57a1 1 0 0 0-1.28.22l-5 6a1 1 0 0 0 .13 1.41A1 1 0 0 0 4 18a1 1 0 0 0 .77-.36l4.45-5.34l4.27 2.56a1 1 0 0 0 1.27-.21L19 9.7V12a1 1 0 0 0 2 0V7Z"/></g></g>
</svg>